<?xml version="1.0" encoding="ISO-8859-1"?>
<!DOCTYPE svg PUBLIC "-//W3C//DTD SVG December 1999//EN" "http://www.w3.org/Graphics/SVG/SVG-19991203.dtd">
<!-- generated by Grace-5.1.0 -->
<svg xml:space="preserve" width="11.0000in" height="8.5000in" viewBox="0.0000 0.0000 792.0000 612.0000">
 <desc>This sample is based on a real data processed with the
"gracebox" script by Stewart Rounds.
</desc>
  <g style="fill:#FFFFFF; fill-rule:nonzero">
   <path  d="M0.0000,612.0000L0.0000,0.0000L792.0000,0.0000L792.0000,612.0000z"/>
  </g>
  <g style="fill:none; stroke:#DCDCDC; stroke-width:  0.4590; stroke-linecap:butt; stroke-linejoin:miter; stroke-dasharray: 5 3">
   <path d="M91.8000,455.7194L703.8000,455.7194"/>
   <path d="M91.8000,418.0006L703.8000,418.0006"/>
   <path d="M91.8000,391.2387L703.8000,391.2387"/>
   <path d="M91.8000,370.4806L703.8000,370.4806"/>
   <path d="M91.8000,353.5200L703.8000,353.5200"/>
   <path d="M91.8000,339.1800L703.8000,339.1800"/>
   <path d="M91.8000,326.7581L703.8000,326.7581"/>
   <path d="M91.8000,315.8013L703.8000,315.8013"/>
   <path d="M91.8000,241.5194L703.8000,241.5194"/>
   <path d="M91.8000,203.8006L703.8000,203.8006"/>
   <path d="M91.8000,177.0387L703.8000,177.0387"/>
   <path d="M91.8000,156.2806L703.8000,156.2806"/>
   <path d="M91.8000,139.3200L703.8000,139.3200"/>
   <path d="M91.8000,124.9800L703.8000,124.9800"/>
   <path d="M91.8000,112.5581L703.8000,112.5581"/>
   <path d="M91.8000,101.6013L703.8000,101.6013"/>
  </g>
  <g style="fill:none; stroke:#DCDCDC; stroke-width:  0.4590; stroke-linecap:butt; stroke-linejoin:miter; stroke-dasharray:none">
   <path d="M91.8000,520.2000L703.8000,520.2000"/>
   <path d="M91.8000,306.0000L703.8000,306.0000"/>
   <path d="M91.8000,91.8000L703.8000,91.8000"/>
  </g>
  <g style="fill:none; stroke:#7221BC; stroke-width:  4.5900; stroke-linecap:butt; stroke-linejoin:miter; stroke-dasharray:none">
   <path d="M138.8769,241.0554L185.9538,314.0605L233.0308,241.0554L280.1077,220.9475L327.1846,289.0394L374.2615,356.7540L421.3385,440.7173L468.4154,488.2373L515.4923,467.3473L562.5692,473.6149
            L609.6462,461.7231L656.7231,314.3653"/>
  </g>
  <g style="fill:none; stroke:#40E0D0; stroke-width:  0.9180; stroke-linecap:butt; stroke-linejoin:miter; stroke-dasharray:none">
   <path d="M138.8769,294.6306L138.8769,330.5556"/>
  </g>
  <g style="fill:none; stroke:#40E0D0; stroke-width:  1.8360; stroke-linecap:butt; stroke-linejoin:miter; stroke-dasharray:none">
   <path d="M141.9369,330.5556L135.8169,330.5556"/>
  </g>
  <g style="fill:none; stroke:#40E0D0; stroke-width:  0.9180; stroke-linecap:butt; stroke-linejoin:miter; stroke-dasharray:none">
   <path d="M138.8769,178.4447L138.8769,168.1724"/>
  </g>
  <g style="fill:none; stroke:#40E0D0; stroke-width:  1.8360; stroke-linecap:butt; stroke-linejoin:miter; stroke-dasharray:none">
   <path d="M135.8169,168.1724L141.9369,168.1724"/>
  </g>
  <g style="fill:#00FFFF; fill-rule:nonzero">
   <path  d="M132.7569,294.6306L132.7569,178.4447L144.9969,178.4447L144.9969,294.6306z"/>
  </g>
  <g style="fill:none; stroke:#0000FF; stroke-width:  0.9180; stroke-linecap:butt; stroke-linejoin:miter; stroke-dasharray:none">
   <path d="M132.7569,294.6306L132.7569,178.4447L144.9969,178.4447L144.9969,294.6306z"/>
   <path d="M132.7569,241.0554L144.9969,241.0554"/>
  </g>
  <g style="fill:none; stroke:#40E0D0; stroke-width:  0.9180; stroke-linecap:butt; stroke-linejoin:miter; stroke-dasharray:none">
   <path d="M185.9538,328.8751L185.9538,343.8118"/>
  </g>
  <g style="fill:none; stroke:#40E0D0; stroke-width:  1.8360; stroke-linecap:butt; stroke-linejoin:miter; stroke-dasharray:none">
   <path d="M189.0138,343.8118L182.8938,343.8118"/>
  </g>
  <g style="fill:none; stroke:#40E0D0; stroke-width:  0.9180; stroke-linecap:butt; stroke-linejoin:miter; stroke-dasharray:none">
   <path d="M185.9538,274.6994L185.9538,236.5387"/>
  </g>
  <g style="fill:none; stroke:#40E0D0; stroke-width:  1.8360; stroke-linecap:butt; stroke-linejoin:miter; stroke-dasharray:none">
   <path d="M182.8938,236.5387L189.0138,236.5387"/>
  </g>
  <g style="fill:#00FFFF; fill-rule:nonzero">
   <path  d="M179.8338,328.8751L179.8338,274.6994L192.0738,274.6994L192.0738,328.8751z"/>
  </g>
  <g style="fill:none; stroke:#0000FF; stroke-width:  0.9180; stroke-linecap:butt; stroke-linejoin:miter; stroke-dasharray:none">
   <path d="M179.8338,328.8751L179.8338,274.6994L192.0738,274.6994L192.0738,328.8751z"/>
   <path d="M179.8338,314.0605L192.0738,314.0605"/>
  </g>
  <g style="fill:none; stroke:#40E0D0; stroke-width:  0.9180; stroke-linecap:butt; stroke-linejoin:miter; stroke-dasharray:none">
   <path d="M233.0308,277.3960L233.0308,337.0776"/>
  </g>
  <g style="fill:none; stroke:#40E0D0; stroke-width:  1.8360; stroke-linecap:butt; stroke-linejoin:miter; stroke-dasharray:none">
   <path d="M236.0908,337.0776L229.9708,337.0776"/>
  </g>
  <g style="fill:none; stroke:#40E0D0; stroke-width:  0.9180; stroke-linecap:butt; stroke-linejoin:miter; stroke-dasharray:none">
   <path d="M233.0308,221.5084L233.0308,198.0880"/>
  </g>
  <g style="fill:none; stroke:#40E0D0; stroke-width:  1.8360; stroke-linecap:butt; stroke-linejoin:miter; stroke-dasharray:none">
   <path d="M229.9708,198.0880L236.0908,198.0880"/>
  </g>
  <g style="fill:#00FFFF; fill-rule:nonzero">
   <path  d="M226.9108,277.3960L226.9108,221.5084L239.1508,221.5084L239.1508,277.3960z"/>
  </g>
  <g style="fill:none; stroke:#0000FF; stroke-width:  0.9180; stroke-linecap:butt; stroke-linejoin:miter; stroke-dasharray:none">
   <path d="M226.9108,277.3960L226.9108,221.5084L239.1508,221.5084L239.1508,277.3960z"/>
   <path d="M226.9108,241.0554L239.1508,241.0554"/>
  </g>
  <g style="fill:none; stroke:#40E0D0; stroke-width:  0.9180; stroke-linecap:butt; stroke-linejoin:miter; stroke-dasharray:none">
   <path d="M280.1077,235.2254L280.1077,271.4350"/>
  </g>
  <g style="fill:none; stroke:#40E0D0; stroke-width:  1.8360; stroke-linecap:butt; stroke-linejoin:miter; stroke-dasharray:none">
   <path d="M283.1677,271.4350L277.0477,271.4350"/>
  </g>
  <g style="fill:none; stroke:#40E0D0; stroke-width:  0.9180; stroke-linecap:butt; stroke-linejoin:miter; stroke-dasharray:none">
   <path d="M280.1077,188.8645L280.1077,181.5659"/>
  </g>
  <g style="fill:none; stroke:#40E0D0; stroke-width:  1.8360; stroke-linecap:butt; stroke-linejoin:miter; stroke-dasharray:none">
   <path d="M277.0477,181.5659L283.1677,181.5659"/>
  </g>
  <g style="fill:#00FFFF; fill-rule:nonzero">
   <path  d="M273.9877,235.2254L273.9877,188.8645L286.2277,188.8645L286.2277,235.2254z"/>
  </g>
  <g style="fill:none; stroke:#0000FF; stroke-width:  0.9180; stroke-linecap:butt; stroke-linejoin:miter; stroke-dasharray:none">
   <path d="M273.9877,235.2254L273.9877,188.8645L286.2277,188.8645L286.2277,235.2254z"/>
   <path d="M273.9877,220.9475L286.2277,220.9475"/>
  </g>
  <g style="fill:none; stroke:#40E0D0; stroke-width:  0.9180; stroke-linecap:butt; stroke-linejoin:miter; stroke-dasharray:none">
   <path d="M327.1846,323.1096L327.1846,337.9916"/>
  </g>
  <g style="fill:none; stroke:#40E0D0; stroke-width:  1.8360; stroke-linecap:butt; stroke-linejoin:miter; stroke-dasharray:none">
   <path d="M330.2446,337.9916L324.1246,337.9916"/>
  </g>
  <g style="fill:none; stroke:#40E0D0; stroke-width:  0.9180; stroke-linecap:butt; stroke-linejoin:miter; stroke-dasharray:none">
   <path d="M327.1846,259.4149L327.1846,227.3124"/>
  </g>
  <g style="fill:none; stroke:#40E0D0; stroke-width:  1.8360; stroke-linecap:butt; stroke-linejoin:miter; stroke-dasharray:none">
   <path d="M324.1246,227.3124L330.2446,227.3124"/>
  </g>
  <g style="fill:#00FFFF; fill-rule:nonzero">
   <path  d="M321.0646,323.1096L321.0646,259.4149L333.3046,259.4149L333.3046,323.1096z"/>
  </g>
  <g style="fill:none; stroke:#0000FF; stroke-width:  0.9180; stroke-linecap:butt; stroke-linejoin:miter; stroke-dasharray:none">
   <path d="M321.0646,323.1096L321.0646,259.4149L333.3046,259.4149L333.3046,323.1096z"/>
   <path d="M321.0646,289.0394L333.3046,289.0394"/>
  </g>
  <g style="fill:none; stroke:#40E0D0; stroke-width:  0.9180; stroke-linecap:butt; stroke-linejoin:miter; stroke-dasharray:none">
   <path d="M374.2615,391.5883L374.2615,415.2509"/>
  </g>
  <g style="fill:none; stroke:#40E0D0; stroke-width:  1.8360; stroke-linecap:butt; stroke-linejoin:miter; stroke-dasharray:none">
   <path d="M377.3215,415.2509L371.2015,415.2509"/>
  </g>
  <g style="fill:none; stroke:#40E0D0; stroke-width:  0.9180; stroke-linecap:butt; stroke-linejoin:miter; stroke-dasharray:none">
   <path d="M374.2615,311.8550L374.2615,274.0373"/>
  </g>
  <g style="fill:none; stroke:#40E0D0; stroke-width:  1.8360; stroke-linecap:butt; stroke-linejoin:miter; stroke-dasharray:none">
   <path d="M371.2015,274.0373L377.3215,274.0373"/>
  </g>
  <g style="fill:#00FFFF; fill-rule:nonzero">
   <path  d="M368.1415,391.5883L368.1415,311.8550L380.3815,311.8550L380.3815,391.5883z"/>
  </g>
  <g style="fill:none; stroke:#0000FF; stroke-width:  0.9180; stroke-linecap:butt; stroke-linejoin:miter; stroke-dasharray:none">
   <path d="M368.1415,391.5883L368.1415,311.8550L380.3815,311.8550L380.3815,391.5883z"/>
   <path d="M368.1415,356.7540L380.3815,356.7540"/>
  </g>
  <g style="fill:none; stroke:#40E0D0; stroke-width:  0.9180; stroke-linecap:butt; stroke-linejoin:miter; stroke-dasharray:none">
   <path d="M421.3385,451.1806L421.3385,469.2105"/>
  </g>
  <g style="fill:none; stroke:#40E0D0; stroke-width:  1.8360; stroke-linecap:butt; stroke-linejoin:miter; stroke-dasharray:none">
   <path d="M424.3985,469.2105L418.2785,469.2105"/>
  </g>
  <g style="fill:none; stroke:#40E0D0; stroke-width:  0.9180; stroke-linecap:butt; stroke-linejoin:miter; stroke-dasharray:none">
   <path d="M421.3385,435.7084L421.3385,421.1543"/>
  </g>
  <g style="fill:none; stroke:#40E0D0; stroke-width:  1.8360; stroke-linecap:butt; stroke-linejoin:miter; stroke-dasharray:none">
   <path d="M418.2785,421.1543L424.3985,421.1543"/>
  </g>
  <g style="fill:#00FFFF; fill-rule:nonzero">
   <path  d="M415.2185,451.1806L415.2185,435.7084L427.4585,435.7084L427.4585,451.1806z"/>
  </g>
  <g style="fill:none; stroke:#0000FF; stroke-width:  0.9180; stroke-linecap:butt; stroke-linejoin:miter; stroke-dasharray:none">
   <path d="M415.2185,451.1806L415.2185,435.7084L427.4585,435.7084L427.4585,451.1806z"/>
   <path d="M415.2185,440.7173L427.4585,440.7173"/>
  </g>
  <g style="fill:none; stroke:#40E0D0; stroke-width:  0.9180; stroke-linecap:butt; stroke-linejoin:miter; stroke-dasharray:none">
   <path d="M468.4154,499.4419L468.4154,511.3337"/>
  </g>
  <g style="fill:none; stroke:#40E0D0; stroke-width:  1.8360; stroke-linecap:butt; stroke-linejoin:miter; stroke-dasharray:none">
   <path d="M471.4754,511.3337L465.3554,511.3337"/>
  </g>
  <g style="fill:none; stroke:#40E0D0; stroke-width:  0.9180; stroke-linecap:butt; stroke-linejoin:miter; stroke-dasharray:none">
   <path d="M468.4154,476.4775L468.4154,450.7387"/>
  </g>
  <g style="fill:none; stroke:#40E0D0; stroke-width:  1.8360; stroke-linecap:butt; stroke-linejoin:miter; stroke-dasharray:none">
   <path d="M465.3554,450.7387L471.4754,450.7387"/>
  </g>
  <g style="fill:#00FFFF; fill-rule:nonzero">
   <path  d="M462.2954,499.4419L462.2954,476.4775L474.5354,476.4775L474.5354,499.4419z"/>
  </g>
  <g style="fill:none; stroke:#0000FF; stroke-width:  0.9180; stroke-linecap:butt; stroke-linejoin:miter; stroke-dasharray:none">
   <path d="M462.2954,499.4419L462.2954,476.4775L474.5354,476.4775L474.5354,499.4419z"/>
   <path d="M462.2954,488.2373L474.5354,488.2373"/>
  </g>
  <g style="fill:none; stroke:#40E0D0; stroke-width:  0.9180; stroke-linecap:butt; stroke-linejoin:miter; stroke-dasharray:none">
   <path d="M515.4923,484.2026L515.4923,511.3337"/>
  </g>
  <g style="fill:none; stroke:#40E0D0; stroke-width:  1.8360; stroke-linecap:butt; stroke-linejoin:miter; stroke-dasharray:none">
   <path d="M518.5523,511.3337L512.4323,511.3337"/>
  </g>
  <g style="fill:none; stroke:#40E0D0; stroke-width:  0.9180; stroke-linecap:butt; stroke-linejoin:miter; stroke-dasharray:none">
   <path d="M515.4923,427.7158L515.4923,419.2493"/>
  </g>
  <g style="fill:none; stroke:#40E0D0; stroke-width:  1.8360; stroke-linecap:butt; stroke-linejoin:miter; stroke-dasharray:none">
   <path d="M512.4323,419.2493L518.5523,419.2493"/>
  </g>
  <g style="fill:#00FFFF; fill-rule:nonzero">
   <path  d="M509.3723,484.2026L509.3723,427.7158L521.6123,427.7158L521.6123,484.2026z"/>
  </g>
  <g style="fill:none; stroke:#0000FF; stroke-width:  0.9180; stroke-linecap:butt; stroke-linejoin:miter; stroke-dasharray:none">
   <path d="M509.3723,484.2026L509.3723,427.7158L521.6123,427.7158L521.6123,484.2026z"/>
   <path d="M509.3723,467.3473L521.6123,467.3473"/>
  </g>
  <g style="fill:none; stroke:#40E0D0; stroke-width:  0.9180; stroke-linecap:butt; stroke-linejoin:miter; stroke-dasharray:none">
   <path d="M562.5692,487.5798L562.5692,507.1985"/>
  </g>
  <g style="fill:none; stroke:#40E0D0; stroke-width:  1.8360; stroke-linecap:butt; stroke-linejoin:miter; stroke-dasharray:none">
   <path d="M565.6292,507.1985L559.5092,507.1985"/>
  </g>
  <g style="fill:none; stroke:#40E0D0; stroke-width:  0.9180; stroke-linecap:butt; stroke-linejoin:miter; stroke-dasharray:none">
   <path d="M562.5692,454.7937L562.5692,430.5999"/>
  </g>
  <g style="fill:none; stroke:#40E0D0; stroke-width:  1.8360; stroke-linecap:butt; stroke-linejoin:miter; stroke-dasharray:none">
   <path d="M559.5092,430.5999L565.6292,430.5999"/>
  </g>
  <g style="fill:#00FFFF; fill-rule:nonzero">
   <path  d="M556.4492,487.5798L556.4492,454.7937L568.6892,454.7937L568.6892,487.5798z"/>
  </g>
  <g style="fill:none; stroke:#0000FF; stroke-width:  0.9180; stroke-linecap:butt; stroke-linejoin:miter; stroke-dasharray:none">
   <path d="M556.4492,487.5798L556.4492,454.7937L568.6892,454.7937L568.6892,487.5798z"/>
   <path d="M556.4492,473.6149L568.6892,473.6149"/>
  </g>
  <g style="fill:none; stroke:#40E0D0; stroke-width:  0.9180; stroke-linecap:butt; stroke-linejoin:miter; stroke-dasharray:none">
   <path d="M609.6462,470.2922L609.6462,475.8979"/>
  </g>
  <g style="fill:none; stroke:#40E0D0; stroke-width:  1.8360; stroke-linecap:butt; stroke-linejoin:miter; stroke-dasharray:none">
   <path d="M612.7062,475.8979L606.5862,475.8979"/>
  </g>
  <g style="fill:none; stroke:#40E0D0; stroke-width:  0.9180; stroke-linecap:butt; stroke-linejoin:miter; stroke-dasharray:none">
   <path d="M609.6462,454.1055L609.6462,434.9613"/>
  </g>
  <g style="fill:none; stroke:#40E0D0; stroke-width:  1.8360; stroke-linecap:butt; stroke-linejoin:miter; stroke-dasharray:none">
   <path d="M606.5862,434.9613L612.7062,434.9613"/>
  </g>
  <g style="fill:#00FFFF; fill-rule:nonzero">
   <path  d="M603.5262,470.2922L603.5262,454.1055L615.7662,454.1055L615.7662,470.2922z"/>
  </g>
  <g style="fill:none; stroke:#0000FF; stroke-width:  0.9180; stroke-linecap:butt; stroke-linejoin:miter; stroke-dasharray:none">
   <path d="M603.5262,470.2922L603.5262,454.1055L615.7662,454.1055L615.7662,470.2922z"/>
   <path d="M603.5262,461.7231L615.7662,461.7231"/>
  </g>
  <g style="fill:none; stroke:#40E0D0; stroke-width:  0.9180; stroke-linecap:butt; stroke-linejoin:miter; stroke-dasharray:none">
   <path d="M656.7231,363.3213L656.7231,381.9505"/>
  </g>
  <g style="fill:none; stroke:#40E0D0; stroke-width:  1.8360; stroke-linecap:butt; stroke-linejoin:miter; stroke-dasharray:none">
   <path d="M659.7831,381.9505L653.6631,381.9505"/>
  </g>
  <g style="fill:none; stroke:#40E0D0; stroke-width:  0.9180; stroke-linecap:butt; stroke-linejoin:miter; stroke-dasharray:none">
   <path d="M656.7231,233.9303L656.7231,190.2614"/>
  </g>
  <g style="fill:none; stroke:#40E0D0; stroke-width:  1.8360; stroke-linecap:butt; stroke-linejoin:miter; stroke-dasharray:none">
   <path d="M653.6631,190.2614L659.7831,190.2614"/>
  </g>
  <g style="fill:#00FFFF; fill-rule:nonzero">
   <path  d="M650.6031,363.3213L650.6031,233.9303L662.8431,233.9303L662.8431,363.3213z"/>
  </g>
  <g style="fill:none; stroke:#0000FF; stroke-width:  0.9180; stroke-linecap:butt; stroke-linejoin:miter; stroke-dasharray:none">
   <path d="M650.6031,363.3213L650.6031,233.9303L662.8431,233.9303L662.8431,363.3213z"/>
   <path d="M650.6031,314.3653L662.8431,314.3653"/>
  </g>
  <g style="fill:none; stroke:#FFA500; stroke-width:  0.9180; stroke-linecap:butt; stroke-linejoin:miter; stroke-dasharray:none">
   <path d="M183.1410,207.8622L188.7667,202.2364"/>
   <path d="M183.1410,202.2364L188.7667,207.8622"/>
   <path d="M183.1410,222.4645L188.7667,216.8387"/>
   <path d="M183.1410,216.8387L188.7667,222.4645"/>
   <path d="M418.5256,487.1735L424.1513,481.5478"/>
   <path d="M418.5256,481.5478L424.1513,487.1735"/>
  </g>
  <g style="fill:none; stroke:#FF0000; stroke-width:  0.9180; stroke-linecap:butt; stroke-linejoin:miter; stroke-dasharray:none">
   <ellipse  rx="3.0600" ry="3.0600" cx="185.9538" cy="194.6528"/>
  </g>
  <g style="fill:none; stroke:#000000; stroke-width:  0.9180; stroke-linecap:butt; stroke-linejoin:miter; stroke-dasharray:none">
   <path d="M91.8000,520.2000L703.8000,520.2000"/>
  </g>
  <g style="fill:none; stroke:#000000; stroke-width:  5.5080; stroke-linecap:butt; stroke-linejoin:miter; stroke-dasharray:none">
   <path d="M138.8769,522.6480L138.8769,517.7520"/>
   <path d="M185.9538,522.6480L185.9538,517.7520"/>
   <path d="M233.0308,522.6480L233.0308,517.7520"/>
   <path d="M280.1077,522.6480L280.1077,517.7520"/>
   <path d="M327.1846,522.6480L327.1846,517.7520"/>
   <path d="M374.2615,522.6480L374.2615,517.7520"/>
   <path d="M421.3385,522.6480L421.3385,517.7520"/>
   <path d="M468.4154,522.6480L468.4154,517.7520"/>
   <path d="M515.4923,522.6480L515.4923,517.7520"/>
   <path d="M562.5692,522.6480L562.5692,517.7520"/>
   <path d="M609.6462,522.6480L609.6462,517.7520"/>
   <path d="M656.7231,522.6480L656.7231,517.7520"/>
  </g>
  <g style="fill:#0000FF; fill-rule:nonzero">
   <text   style="font-family:Times; font-style:normal; font-weight:normal; font-size:612.0000" transform="matrix(0.0280,-0.0000,-0.0000,0.0280,127.8769,539.7680)">Jan</text>
   <text   style="font-family:Times; font-style:normal; font-weight:normal; font-size:612.0000" transform="matrix(0.0280,-0.0000,-0.0000,0.0280,173.4538,540.7680)">Feb</text>
  </g>
  <g style="fill:#FF00FF; fill-rule:nonzero">
   <text   style="font-family:Times; font-style:normal; font-weight:normal; font-size:612.0000" transform="matrix(0.0280,-0.0000,-0.0000,0.0280,218.5308,539.7680)">Mar</text>
   <text   style="font-family:Times; font-style:normal; font-weight:normal; font-size:612.0000" transform="matrix(0.0280,-0.0000,-0.0000,0.0280,266.6077,539.7680)">Apr</text>
   <text   style="font-family:Times; font-style:normal; font-weight:normal; font-size:612.0000" transform="matrix(0.0280,-0.0000,-0.0000,0.0280,311.6846,539.7680)">May</text>
  </g>
  <g style="fill:#00FF00; fill-rule:nonzero">
   <text   style="font-family:Times; font-style:normal; font-weight:normal; font-size:612.0000" transform="matrix(0.0280,-0.0000,-0.0000,0.0280,362.7615,539.7680)">Jun</text>
   <text   style="font-family:Times; font-style:normal; font-weight:normal; font-size:612.0000" transform="matrix(0.0280,-0.0000,-0.0000,0.0280,411.8385,540.7680)">Jul</text>
   <text   style="font-family:Times; font-style:normal; font-weight:normal; font-size:612.0000" transform="matrix(0.0280,-0.0000,-0.0000,0.0280,453.9154,539.7680)">Aug</text>
  </g>
  <g style="fill:#FFA500; fill-rule:nonzero">
   <text   style="font-family:Times; font-style:normal; font-weight:normal; font-size:612.0000" transform="matrix(0.0280,-0.0000,-0.0000,0.0280,502.4923,540.7680)">Sep</text>
   <text   style="font-family:Times; font-style:normal; font-weight:normal; font-size:612.0000" transform="matrix(0.0280,-0.0000,-0.0000,0.0280,549.5692,539.7680)">Oct</text>
   <text   style="font-family:Times; font-style:normal; font-weight:normal; font-size:612.0000" transform="matrix(0.0280,-0.0000,-0.0000,0.0280,595.1462,539.7680)">Nov</text>
  </g>
  <g style="fill:#0000FF; fill-rule:nonzero">
   <text   style="font-family:Times; font-style:normal; font-weight:normal; font-size:612.0000" transform="matrix(0.0280,-0.0000,-0.0000,0.0280,643.2231,539.7680)">Dec</text>
  </g>
  <g style="fill:none; stroke:#000000; stroke-width:  0.9180; stroke-linecap:butt; stroke-linejoin:miter; stroke-dasharray:none">
   <path d="M91.8000,520.2000L91.8000,91.8000"/>
   <path d="M703.8000,520.2000L703.8000,91.8000"/>
  </g>
  <g style="fill:#000000; fill-rule:nonzero">
   <text   style="font-family:Times; font-style:normal; font-weight:normal; font-size:612.0000" transform="matrix(0.0280,-0.0000,-0.0000,0.0280,60.6800,525.7000)">100 </text>
   <text   style="font-family:Times; font-style:normal; font-weight:normal; font-size:612.0000" transform="matrix(0.0280,-0.0000,-0.0000,0.0280,63.6800,312.0000)">1 k</text>
   <text   style="font-family:Times; font-style:normal; font-weight:normal; font-size:612.0000" transform="matrix(0.0280,-0.0000,-0.0000,0.0280,55.6800,97.8000)">10 k</text>
  </g>
  <g style="fill:none; stroke:#000000; stroke-width:  0.9180; stroke-linecap:butt; stroke-linejoin:miter; stroke-dasharray:none">
   <path d="M91.8000,520.2000L91.8000,91.8000L703.8000,91.8000L703.8000,520.2000z"/>
  </g>
  <g style="fill:#000000; fill-rule:nonzero">
   <text   style="font-family:Times; font-style:normal; font-weight:normal; font-size:612.0000" transform="matrix(0.0420,-0.0000,-0.0000,0.0420,273.8000,49.0800)">Daily Mean Streamflow</text>
   <text   style="font-family:Times; font-style:normal; font-weight:normal; font-size:612.0000" transform="matrix(0.0280,-0.0000,-0.0000,0.0280,322.3000,75.5600)">(a sample of BoxPlot)</text>
  </g>
  <g style="fill:none; stroke:#000000; stroke-width:  0.9180; stroke-linecap:butt; stroke-linejoin:miter; stroke-dasharray:none">
   <path d="M440.0000,207.0000L379.4400,287.6400"/>
  </g>
  <g style="fill:#FFFFFF; fill-rule:nonzero">
   <path  d="M380.6683,280.9088L379.4400,287.6400L385.5619,284.5839L384.2176,281.2782z"/>
  </g>
  <g style="fill:none; stroke:#000000; stroke-width:  0.9180; stroke-linecap:butt; stroke-linejoin:miter; stroke-dasharray:none">
   <path d="M380.6683,280.9088L379.4400,287.6400L385.5619,284.5839L384.2176,281.2782z"/>
  </g>
  <g style="fill:#000000; fill-rule:nonzero">
   <text   style="font-family:Helvetica; font-style:normal; font-weight:normal; font-size:612.0000" transform="matrix(0.0224,-0.0000,-0.0000,0.0224,318.6400,191.3712)">The whisker properties are controlled by</text>
   <text   style="font-family:Helvetica; font-style:normal; font-weight:normal; font-size:612.0000" transform="matrix(0.0224,-0.0000,-0.0000,0.0224,318.6400,205.0800)">"Plot/Set appearance/Error bars"</text>
  </g>
</svg>
