<?xml version="1.0" encoding="ISO-8859-1"?>
<!DOCTYPE svg PUBLIC "-//W3C//DTD SVG December 1999//EN" "http://www.w3.org/Graphics/SVG/SVG-19991203.dtd">
<!-- generated by Grace-5.1.0 -->
<svg xml:space="preserve" width="9.3056in" height="8.3333in" viewBox="0.0000 0.0000 670.0000 600.0000">
  <g style="fill:#FFFFFF; fill-rule:nonzero">
   <path  d="M0.0000,600.0000L0.0000,0.0000L670.0000,0.0000L670.0000,600.0000z"/>
  </g>
  <g style="fill:none; stroke:#000000; stroke-width:  0.9000; stroke-linecap:butt; stroke-linejoin:miter; stroke-dasharray:none">
   <path d="M83.9847,490.6023L97.2930,489.5676L110.6013,488.7771L123.9096,487.7424L137.2179,486.0681L150.5262,483.6034L163.8345,480.4992L177.1428,477.1508L190.4511,474.0466"/>
   <ellipse  rx="6.0000" ry="6.0000" cx="83.9847" cy="490.6023"/>
   <ellipse  rx="6.0000" ry="6.0000" cx="97.2930" cy="489.5676"/>
   <ellipse  rx="6.0000" ry="6.0000" cx="110.6013" cy="488.7771"/>
   <ellipse  rx="6.0000" ry="6.0000" cx="123.9096" cy="487.7424"/>
   <ellipse  rx="6.0000" ry="6.0000" cx="137.2179" cy="486.0681"/>
   <ellipse  rx="6.0000" ry="6.0000" cx="150.5262" cy="483.6034"/>
   <ellipse  rx="6.0000" ry="6.0000" cx="163.8345" cy="480.4992"/>
   <ellipse  rx="6.0000" ry="6.0000" cx="177.1428" cy="477.1508"/>
   <ellipse  rx="6.0000" ry="6.0000" cx="190.4511" cy="474.0466"/>
  </g>
  <g style="fill:none; stroke:#FF0000; stroke-width:  0.9000; stroke-linecap:butt; stroke-linejoin:miter; stroke-dasharray:none">
   <path d="M83.9847,469.9076L97.2930,468.8729L110.6013,468.0824L123.9096,467.0476L137.2179,465.3734L150.5262,462.9087L163.8345,459.8045L177.1428,456.4561L190.4511,453.3519"/>
   <path d="M78.8847,475.0076L78.8847,464.8076L89.0847,464.8076L89.0847,475.0076z"/>
   <path d="M92.1930,473.9729L92.1930,463.7729L102.3930,463.7729L102.3930,473.9729z"/>
   <path d="M105.5013,473.1824L105.5013,462.9824L115.7013,462.9824L115.7013,473.1824z"/>
   <path d="M118.8096,472.1476L118.8096,461.9476L129.0096,461.9476L129.0096,472.1476z"/>
   <path d="M132.1179,470.4734L132.1179,460.2734L142.3179,460.2734L142.3179,470.4734z"/>
   <path d="M145.4262,468.0087L145.4262,457.8087L155.6262,457.8087L155.6262,468.0087z"/>
   <path d="M158.7345,464.9045L158.7345,454.7045L168.9345,454.7045L168.9345,464.9045z"/>
   <path d="M172.0428,461.5561L172.0428,451.3561L182.2428,451.3561L182.2428,461.5561z"/>
   <path d="M185.3511,458.4519L185.3511,448.2519L195.5511,448.2519L195.5511,458.4519z"/>
  </g>
  <g style="fill:none; stroke:#00FF00; stroke-width:  0.9000; stroke-linecap:butt; stroke-linejoin:miter; stroke-dasharray:none">
   <path d="M83.9847,449.2130L97.2930,448.1782L110.6013,447.3877L123.9096,446.3529L137.2179,444.6787L150.5262,442.2140L163.8345,439.1098L177.1428,435.7614L190.4511,432.6572"/>
   <path d="M83.9847,443.2130L77.9847,449.2130L83.9847,455.2130L89.9847,449.2130z"/>
   <path d="M97.2930,442.1782L91.2930,448.1782L97.2930,454.1782L103.2930,448.1782z"/>
   <path d="M110.6013,441.3877L104.6013,447.3877L110.6013,453.3877L116.6013,447.3877z"/>
   <path d="M123.9096,440.3529L117.9096,446.3529L123.9096,452.3529L129.9096,446.3529z"/>
   <path d="M137.2179,438.6787L131.2179,444.6787L137.2179,450.6787L143.2179,444.6787z"/>
   <path d="M150.5262,436.2140L144.5262,442.2140L150.5262,448.2140L156.5262,442.2140z"/>
   <path d="M163.8345,433.1098L157.8345,439.1098L163.8345,445.1098L169.8345,439.1098z"/>
   <path d="M177.1428,429.7614L171.1428,435.7614L177.1428,441.7614L183.1428,435.7614z"/>
   <path d="M190.4511,426.6572L184.4511,432.6572L190.4511,438.6572L196.4511,432.6572z"/>
  </g>
  <g style="fill:none; stroke:#0000FF; stroke-width:  0.9000; stroke-linecap:butt; stroke-linejoin:miter; stroke-dasharray:none">
   <path d="M83.9847,428.5183L97.2930,427.4835L110.6013,426.6930L123.9096,425.6583L137.2179,423.9841L150.5262,421.5193L163.8345,418.4151L177.1428,415.0667L190.4511,411.9625"/>
   <path d="M83.9847,421.5901L77.9847,431.9824L89.9847,431.9824z"/>
   <path d="M97.2930,420.5553L91.2930,430.9476L103.2930,430.9476z"/>
   <path d="M110.6013,419.7648L104.6013,430.1571L116.6013,430.1571z"/>
   <path d="M123.9096,418.7301L117.9096,429.1224L129.9096,429.1224z"/>
   <path d="M137.2179,417.0559L131.2179,427.4482L143.2179,427.4482z"/>
   <path d="M150.5262,414.5911L144.5262,424.9834L156.5262,424.9834z"/>
   <path d="M163.8345,411.4869L157.8345,421.8792L169.8345,421.8792z"/>
   <path d="M177.1428,408.1385L171.1428,418.5308L183.1428,418.5308z"/>
   <path d="M190.4511,405.0343L184.4511,415.4266L196.4511,415.4266z"/>
  </g>
  <g style="fill:none; stroke:#FFFF00; stroke-width:  0.9000; stroke-linecap:butt; stroke-linejoin:miter; stroke-dasharray:none">
   <path d="M83.9847,407.8236L97.2930,406.7888L110.6013,405.9983L123.9096,404.9636L137.2179,403.2894L150.5262,400.8246L163.8345,397.7204L177.1428,394.3720L190.4511,391.2678"/>
   <path d="M77.0565,407.8236L87.4488,413.8236L87.4488,401.8236z"/>
   <path d="M90.3648,406.7888L100.7571,412.7888L100.7571,400.7888z"/>
   <path d="M103.6731,405.9983L114.0654,411.9983L114.0654,399.9983z"/>
   <path d="M116.9814,404.9636L127.3737,410.9636L127.3737,398.9636z"/>
   <path d="M130.2897,403.2894L140.6820,409.2894L140.6820,397.2894z"/>
   <path d="M143.5980,400.8246L153.9903,406.8246L153.9903,394.8246z"/>
   <path d="M156.9063,397.7204L167.2986,403.7204L167.2986,391.7204z"/>
   <path d="M170.2146,394.3720L180.6069,400.3720L180.6069,388.3720z"/>
   <path d="M183.5229,391.2678L193.9152,397.2678L193.9152,385.2678z"/>
  </g>
  <g style="fill:none; stroke:#BC8F8F; stroke-width:  0.9000; stroke-linecap:butt; stroke-linejoin:miter; stroke-dasharray:none">
   <path d="M83.9847,387.1289L97.2930,386.0941L110.6013,385.3036L123.9096,384.2689L137.2179,382.5947L150.5262,380.1299L163.8345,377.0257L177.1428,373.6773L190.4511,370.5731"/>
   <path d="M77.9847,383.6648L83.9847,394.0571L89.9847,383.6648z"/>
   <path d="M91.2930,382.6300L97.2930,393.0223L103.2930,382.6300z"/>
   <path d="M104.6013,381.8395L110.6013,392.2318L116.6013,381.8395z"/>
   <path d="M117.9096,380.8048L123.9096,391.1971L129.9096,380.8048z"/>
   <path d="M131.2179,379.1306L137.2179,389.5229L143.2179,379.1306z"/>
   <path d="M144.5262,376.6658L150.5262,387.0581L156.5262,376.6658z"/>
   <path d="M157.8345,373.5616L163.8345,383.9539L169.8345,373.5616z"/>
   <path d="M171.1428,370.2132L177.1428,380.6055L183.1428,370.2132z"/>
   <path d="M184.4511,367.1090L190.4511,377.5013L196.4511,367.1090z"/>
  </g>
  <g style="fill:none; stroke:#DCDCDC; stroke-width:  0.9000; stroke-linecap:butt; stroke-linejoin:miter; stroke-dasharray:none">
   <path d="M83.9847,366.4342L97.2930,365.3995L110.6013,364.6089L123.9096,363.5742L137.2179,361.9000L150.5262,359.4352L163.8345,356.3310L177.1428,352.9826L190.4511,349.8784"/>
   <path d="M80.5206,360.4342L80.5206,372.4342L90.9129,366.4342z"/>
   <path d="M93.8289,359.3995L93.8289,371.3995L104.2212,365.3995z"/>
   <path d="M107.1372,358.6089L107.1372,370.6089L117.5295,364.6089z"/>
   <path d="M120.4455,357.5742L120.4455,369.5742L130.8378,363.5742z"/>
   <path d="M133.7538,355.9000L133.7538,367.9000L144.1461,361.9000z"/>
   <path d="M147.0621,353.4352L147.0621,365.4352L157.4544,359.4352z"/>
   <path d="M160.3704,350.3310L160.3704,362.3310L170.7627,356.3310z"/>
   <path d="M173.6787,346.9826L173.6787,358.9826L184.0710,352.9826z"/>
   <path d="M186.9870,343.8784L186.9870,355.8784L197.3793,349.8784z"/>
  </g>
  <g style="fill:none; stroke:#9400D3; stroke-width:  0.9000; stroke-linecap:butt; stroke-linejoin:miter; stroke-dasharray:none">
   <path d="M83.9847,345.7395L97.2930,344.7048L110.6013,343.9142L123.9096,342.8795L137.2179,341.2053L150.5262,338.7406L163.8345,335.6364L177.1428,332.2880L190.4511,329.1837"/>
   <path d="M77.9847,345.7395L89.9847,345.7395"/>
   <path d="M83.9847,351.7395L83.9847,339.7395"/>
   <path d="M91.2930,344.7048L103.2930,344.7048"/>
   <path d="M97.2930,350.7048L97.2930,338.7048"/>
   <path d="M104.6013,343.9142L116.6013,343.9142"/>
   <path d="M110.6013,349.9142L110.6013,337.9142"/>
   <path d="M117.9096,342.8795L129.9096,342.8795"/>
   <path d="M123.9096,348.8795L123.9096,336.8795"/>
   <path d="M131.2179,341.2053L143.2179,341.2053"/>
   <path d="M137.2179,347.2053L137.2179,335.2053"/>
   <path d="M144.5262,338.7406L156.5262,338.7406"/>
   <path d="M150.5262,344.7406L150.5262,332.7406"/>
   <path d="M157.8345,335.6364L169.8345,335.6364"/>
   <path d="M163.8345,341.6364L163.8345,329.6364"/>
   <path d="M171.1428,332.2880L183.1428,332.2880"/>
   <path d="M177.1428,338.2880L177.1428,326.2880"/>
   <path d="M184.4511,329.1837L196.4511,329.1837"/>
   <path d="M190.4511,335.1837L190.4511,323.1837"/>
  </g>
  <g style="fill:none; stroke:#00FFFF; stroke-width:  0.9000; stroke-linecap:butt; stroke-linejoin:miter; stroke-dasharray:none">
   <path d="M83.9847,325.0448L97.2930,324.0101L110.6013,323.2195L123.9096,322.1848L137.2179,320.5106L150.5262,318.0459L163.8345,314.9417L177.1428,311.5933L190.4511,308.4891"/>
   <path d="M79.7421,329.2875L88.2273,320.8022"/>
   <path d="M79.7421,320.8022L88.2273,329.2875"/>
   <path d="M93.0504,328.2527L101.5356,319.7674"/>
   <path d="M93.0504,319.7674L101.5356,328.2527"/>
   <path d="M106.3587,327.4622L114.8439,318.9769"/>
   <path d="M106.3587,318.9769L114.8439,327.4622"/>
   <path d="M119.6670,326.4274L128.1522,317.9422"/>
   <path d="M119.6670,317.9422L128.1522,326.4274"/>
   <path d="M132.9753,324.7532L141.4605,316.2680"/>
   <path d="M132.9753,316.2680L141.4605,324.7532"/>
   <path d="M146.2836,322.2885L154.7688,313.8032"/>
   <path d="M146.2836,313.8032L154.7688,322.2885"/>
   <path d="M159.5919,319.1843L168.0771,310.6990"/>
   <path d="M159.5919,310.6990L168.0771,319.1843"/>
   <path d="M172.9002,315.8359L181.3854,307.3506"/>
   <path d="M172.9002,307.3506L181.3854,315.8359"/>
   <path d="M186.2085,312.7317L194.6937,304.2464"/>
   <path d="M186.2085,304.2464L194.6937,312.7317"/>
  </g>
  <g style="fill:none; stroke:#FF00FF; stroke-width:  0.9000; stroke-linecap:butt; stroke-linejoin:miter; stroke-dasharray:none">
   <path d="M83.9847,304.3501L97.2930,303.3154L110.6013,302.5248L123.9096,301.4901L137.2179,299.8159L150.5262,297.3512L163.8345,294.2470L177.1428,290.8986L190.4511,287.7944"/>
   <path d="M77.9847,304.3501L89.9847,304.3501"/>
   <path d="M83.9847,310.3501L83.9847,298.3501"/>
   <path d="M79.7421,308.5928L88.2273,300.1075"/>
   <path d="M79.7421,300.1075L88.2273,308.5928"/>
   <path d="M91.2930,303.3154L103.2930,303.3154"/>
   <path d="M97.2930,309.3154L97.2930,297.3154"/>
   <path d="M93.0504,307.5580L101.5356,299.0727"/>
   <path d="M93.0504,299.0727L101.5356,307.5580"/>
   <path d="M104.6013,302.5248L116.6013,302.5248"/>
   <path d="M110.6013,308.5248L110.6013,296.5248"/>
   <path d="M106.3587,306.7675L114.8439,298.2822"/>
   <path d="M106.3587,298.2822L114.8439,306.7675"/>
   <path d="M117.9096,301.4901L129.9096,301.4901"/>
   <path d="M123.9096,307.4901L123.9096,295.4901"/>
   <path d="M119.6670,305.7328L128.1522,297.2475"/>
   <path d="M119.6670,297.2475L128.1522,305.7328"/>
   <path d="M131.2179,299.8159L143.2179,299.8159"/>
   <path d="M137.2179,305.8159L137.2179,293.8159"/>
   <path d="M132.9753,304.0586L141.4605,295.5733"/>
   <path d="M132.9753,295.5733L141.4605,304.0586"/>
   <path d="M144.5262,297.3512L156.5262,297.3512"/>
   <path d="M150.5262,303.3512L150.5262,291.3512"/>
   <path d="M146.2836,301.5938L154.7688,293.1085"/>
   <path d="M146.2836,293.1085L154.7688,301.5938"/>
   <path d="M157.8345,294.2470L169.8345,294.2470"/>
   <path d="M163.8345,300.2470L163.8345,288.2470"/>
   <path d="M159.5919,298.4896L168.0771,290.0043"/>
   <path d="M159.5919,290.0043L168.0771,298.4896"/>
   <path d="M171.1428,290.8986L183.1428,290.8986"/>
   <path d="M177.1428,296.8986L177.1428,284.8986"/>
   <path d="M172.9002,295.1412L181.3854,286.6559"/>
   <path d="M172.9002,286.6559L181.3854,295.1412"/>
   <path d="M184.4511,287.7944L196.4511,287.7944"/>
   <path d="M190.4511,293.7944L190.4511,281.7944"/>
   <path d="M186.2085,292.0370L194.6937,283.5517"/>
   <path d="M186.2085,283.5517L194.6937,292.0370"/>
  </g>
  <g style="fill:none; stroke:#FFA500; stroke-width:  0.9000; stroke-linecap:butt; stroke-linejoin:miter; stroke-dasharray:none">
   <path d="M83.9847,283.6554L97.2930,282.6207L110.6013,281.8302L123.9096,280.7954L137.2179,279.1212L150.5262,276.6565L163.8345,273.5523L177.1428,270.2039L190.4511,267.0997"/>
  </g>
  <g style="fill:#FFA500; fill-rule:nonzero">
   <ellipse  rx="6.0000" ry="6.0000" cx="83.9847" cy="283.6554"/>
  </g>
  <g style="fill:none; stroke:#FFA500; stroke-width:  0.9000; stroke-linecap:butt; stroke-linejoin:miter; stroke-dasharray:none">
   <ellipse  rx="6.0000" ry="6.0000" cx="83.9847" cy="283.6554"/>
  </g>
  <g style="fill:#FFA500; fill-rule:nonzero">
   <ellipse  rx="6.0000" ry="6.0000" cx="97.2930" cy="282.6207"/>
  </g>
  <g style="fill:none; stroke:#FFA500; stroke-width:  0.9000; stroke-linecap:butt; stroke-linejoin:miter; stroke-dasharray:none">
   <ellipse  rx="6.0000" ry="6.0000" cx="97.2930" cy="282.6207"/>
  </g>
  <g style="fill:#FFA500; fill-rule:nonzero">
   <ellipse  rx="6.0000" ry="6.0000" cx="110.6013" cy="281.8302"/>
  </g>
  <g style="fill:none; stroke:#FFA500; stroke-width:  0.9000; stroke-linecap:butt; stroke-linejoin:miter; stroke-dasharray:none">
   <ellipse  rx="6.0000" ry="6.0000" cx="110.6013" cy="281.8302"/>
  </g>
  <g style="fill:#FFA500; fill-rule:nonzero">
   <ellipse  rx="6.0000" ry="6.0000" cx="123.9096" cy="280.7954"/>
  </g>
  <g style="fill:none; stroke:#FFA500; stroke-width:  0.9000; stroke-linecap:butt; stroke-linejoin:miter; stroke-dasharray:none">
   <ellipse  rx="6.0000" ry="6.0000" cx="123.9096" cy="280.7954"/>
  </g>
  <g style="fill:#FFA500; fill-rule:nonzero">
   <ellipse  rx="6.0000" ry="6.0000" cx="137.2179" cy="279.1212"/>
  </g>
  <g style="fill:none; stroke:#FFA500; stroke-width:  0.9000; stroke-linecap:butt; stroke-linejoin:miter; stroke-dasharray:none">
   <ellipse  rx="6.0000" ry="6.0000" cx="137.2179" cy="279.1212"/>
  </g>
  <g style="fill:#FFA500; fill-rule:nonzero">
   <ellipse  rx="6.0000" ry="6.0000" cx="150.5262" cy="276.6565"/>
  </g>
  <g style="fill:none; stroke:#FFA500; stroke-width:  0.9000; stroke-linecap:butt; stroke-linejoin:miter; stroke-dasharray:none">
   <ellipse  rx="6.0000" ry="6.0000" cx="150.5262" cy="276.6565"/>
  </g>
  <g style="fill:#FFA500; fill-rule:nonzero">
   <ellipse  rx="6.0000" ry="6.0000" cx="163.8345" cy="273.5523"/>
  </g>
  <g style="fill:none; stroke:#FFA500; stroke-width:  0.9000; stroke-linecap:butt; stroke-linejoin:miter; stroke-dasharray:none">
   <ellipse  rx="6.0000" ry="6.0000" cx="163.8345" cy="273.5523"/>
  </g>
  <g style="fill:#FFA500; fill-rule:nonzero">
   <ellipse  rx="6.0000" ry="6.0000" cx="177.1428" cy="270.2039"/>
  </g>
  <g style="fill:none; stroke:#FFA500; stroke-width:  0.9000; stroke-linecap:butt; stroke-linejoin:miter; stroke-dasharray:none">
   <ellipse  rx="6.0000" ry="6.0000" cx="177.1428" cy="270.2039"/>
  </g>
  <g style="fill:#FFA500; fill-rule:nonzero">
   <ellipse  rx="6.0000" ry="6.0000" cx="190.4511" cy="267.0997"/>
  </g>
  <g style="fill:none; stroke:#FFA500; stroke-width:  0.9000; stroke-linecap:butt; stroke-linejoin:miter; stroke-dasharray:none">
   <ellipse  rx="6.0000" ry="6.0000" cx="190.4511" cy="267.0997"/>
  </g>
  <g style="fill:none; stroke:#7221BC; stroke-width:  0.9000; stroke-linecap:butt; stroke-linejoin:miter; stroke-dasharray:none">
   <path d="M83.9847,262.9607L97.2930,261.9260L110.6013,261.1355L123.9096,260.1007L137.2179,258.4265L150.5262,255.9618L163.8345,252.8576L177.1428,249.5092L190.4511,246.4050"/>
  </g>
  <g style="fill:#7221BC; fill-rule:nonzero">
   <path  d="M78.8847,268.0607L78.8847,257.8607L89.0847,257.8607L89.0847,268.0607z"/>
  </g>
  <g style="fill:none; stroke:#7221BC; stroke-width:  0.9000; stroke-linecap:butt; stroke-linejoin:miter; stroke-dasharray:none">
   <path d="M78.8847,268.0607L78.8847,257.8607L89.0847,257.8607L89.0847,268.0607z"/>
  </g>
  <g style="fill:#7221BC; fill-rule:nonzero">
   <path  d="M92.1930,267.0260L92.1930,256.8260L102.3930,256.8260L102.3930,267.0260z"/>
  </g>
  <g style="fill:none; stroke:#7221BC; stroke-width:  0.9000; stroke-linecap:butt; stroke-linejoin:miter; stroke-dasharray:none">
   <path d="M92.1930,267.0260L92.1930,256.8260L102.3930,256.8260L102.3930,267.0260z"/>
  </g>
  <g style="fill:#7221BC; fill-rule:nonzero">
   <path  d="M105.5013,266.2355L105.5013,256.0355L115.7013,256.0355L115.7013,266.2355z"/>
  </g>
  <g style="fill:none; stroke:#7221BC; stroke-width:  0.9000; stroke-linecap:butt; stroke-linejoin:miter; stroke-dasharray:none">
   <path d="M105.5013,266.2355L105.5013,256.0355L115.7013,256.0355L115.7013,266.2355z"/>
  </g>
  <g style="fill:#7221BC; fill-rule:nonzero">
   <path  d="M118.8096,265.2007L118.8096,255.0007L129.0096,255.0007L129.0096,265.2007z"/>
  </g>
  <g style="fill:none; stroke:#7221BC; stroke-width:  0.9000; stroke-linecap:butt; stroke-linejoin:miter; stroke-dasharray:none">
   <path d="M118.8096,265.2007L118.8096,255.0007L129.0096,255.0007L129.0096,265.2007z"/>
  </g>
  <g style="fill:#7221BC; fill-rule:nonzero">
   <path  d="M132.1179,263.5265L132.1179,253.3265L142.3179,253.3265L142.3179,263.5265z"/>
  </g>
  <g style="fill:none; stroke:#7221BC; stroke-width:  0.9000; stroke-linecap:butt; stroke-linejoin:miter; stroke-dasharray:none">
   <path d="M132.1179,263.5265L132.1179,253.3265L142.3179,253.3265L142.3179,263.5265z"/>
  </g>
  <g style="fill:#7221BC; fill-rule:nonzero">
   <path  d="M145.4262,261.0618L145.4262,250.8618L155.6262,250.8618L155.6262,261.0618z"/>
  </g>
  <g style="fill:none; stroke:#7221BC; stroke-width:  0.9000; stroke-linecap:butt; stroke-linejoin:miter; stroke-dasharray:none">
   <path d="M145.4262,261.0618L145.4262,250.8618L155.6262,250.8618L155.6262,261.0618z"/>
  </g>
  <g style="fill:#7221BC; fill-rule:nonzero">
   <path  d="M158.7345,257.9576L158.7345,247.7576L168.9345,247.7576L168.9345,257.9576z"/>
  </g>
  <g style="fill:none; stroke:#7221BC; stroke-width:  0.9000; stroke-linecap:butt; stroke-linejoin:miter; stroke-dasharray:none">
   <path d="M158.7345,257.9576L158.7345,247.7576L168.9345,247.7576L168.9345,257.9576z"/>
  </g>
  <g style="fill:#7221BC; fill-rule:nonzero">
   <path  d="M172.0428,254.6092L172.0428,244.4092L182.2428,244.4092L182.2428,254.6092z"/>
  </g>
  <g style="fill:none; stroke:#7221BC; stroke-width:  0.9000; stroke-linecap:butt; stroke-linejoin:miter; stroke-dasharray:none">
   <path d="M172.0428,254.6092L172.0428,244.4092L182.2428,244.4092L182.2428,254.6092z"/>
  </g>
  <g style="fill:#7221BC; fill-rule:nonzero">
   <path  d="M185.3511,251.5050L185.3511,241.3050L195.5511,241.3050L195.5511,251.5050z"/>
  </g>
  <g style="fill:none; stroke:#7221BC; stroke-width:  0.9000; stroke-linecap:butt; stroke-linejoin:miter; stroke-dasharray:none">
   <path d="M185.3511,251.5050L185.3511,241.3050L195.5511,241.3050L195.5511,251.5050z"/>
  </g>
  <g style="fill:none; stroke:#670748; stroke-width:  0.9000; stroke-linecap:butt; stroke-linejoin:miter; stroke-dasharray:none">
   <path d="M83.9847,242.2661L97.2930,241.2313L110.6013,240.4408L123.9096,239.4060L137.2179,237.7318L150.5262,235.2671L163.8345,232.1629L177.1428,228.8145L190.4511,225.7103"/>
  </g>
  <g style="fill:#670748; fill-rule:nonzero">
   <path  d="M83.9847,236.2661L77.9847,242.2661L83.9847,248.2661L89.9847,242.2661z"/>
  </g>
  <g style="fill:none; stroke:#670748; stroke-width:  0.9000; stroke-linecap:butt; stroke-linejoin:miter; stroke-dasharray:none">
   <path d="M83.9847,236.2661L77.9847,242.2661L83.9847,248.2661L89.9847,242.2661z"/>
  </g>
  <g style="fill:#670748; fill-rule:nonzero">
   <path  d="M97.2930,235.2313L91.2930,241.2313L97.2930,247.2313L103.2930,241.2313z"/>
  </g>
  <g style="fill:none; stroke:#670748; stroke-width:  0.9000; stroke-linecap:butt; stroke-linejoin:miter; stroke-dasharray:none">
   <path d="M97.2930,235.2313L91.2930,241.2313L97.2930,247.2313L103.2930,241.2313z"/>
  </g>
  <g style="fill:#670748; fill-rule:nonzero">
   <path  d="M110.6013,234.4408L104.6013,240.4408L110.6013,246.4408L116.6013,240.4408z"/>
  </g>
  <g style="fill:none; stroke:#670748; stroke-width:  0.9000; stroke-linecap:butt; stroke-linejoin:miter; stroke-dasharray:none">
   <path d="M110.6013,234.4408L104.6013,240.4408L110.6013,246.4408L116.6013,240.4408z"/>
  </g>
  <g style="fill:#670748; fill-rule:nonzero">
   <path  d="M123.9096,233.4060L117.9096,239.4060L123.9096,245.4060L129.9096,239.4060z"/>
  </g>
  <g style="fill:none; stroke:#670748; stroke-width:  0.9000; stroke-linecap:butt; stroke-linejoin:miter; stroke-dasharray:none">
   <path d="M123.9096,233.4060L117.9096,239.4060L123.9096,245.4060L129.9096,239.4060z"/>
  </g>
  <g style="fill:#670748; fill-rule:nonzero">
   <path  d="M137.2179,231.7318L131.2179,237.7318L137.2179,243.7318L143.2179,237.7318z"/>
  </g>
  <g style="fill:none; stroke:#670748; stroke-width:  0.9000; stroke-linecap:butt; stroke-linejoin:miter; stroke-dasharray:none">
   <path d="M137.2179,231.7318L131.2179,237.7318L137.2179,243.7318L143.2179,237.7318z"/>
  </g>
  <g style="fill:#670748; fill-rule:nonzero">
   <path  d="M150.5262,229.2671L144.5262,235.2671L150.5262,241.2671L156.5262,235.2671z"/>
  </g>
  <g style="fill:none; stroke:#670748; stroke-width:  0.9000; stroke-linecap:butt; stroke-linejoin:miter; stroke-dasharray:none">
   <path d="M150.5262,229.2671L144.5262,235.2671L150.5262,241.2671L156.5262,235.2671z"/>
  </g>
  <g style="fill:#670748; fill-rule:nonzero">
   <path  d="M163.8345,226.1629L157.8345,232.1629L163.8345,238.1629L169.8345,232.1629z"/>
  </g>
  <g style="fill:none; stroke:#670748; stroke-width:  0.9000; stroke-linecap:butt; stroke-linejoin:miter; stroke-dasharray:none">
   <path d="M163.8345,226.1629L157.8345,232.1629L163.8345,238.1629L169.8345,232.1629z"/>
  </g>
  <g style="fill:#670748; fill-rule:nonzero">
   <path  d="M177.1428,222.8145L171.1428,228.8145L177.1428,234.8145L183.1428,228.8145z"/>
  </g>
  <g style="fill:none; stroke:#670748; stroke-width:  0.9000; stroke-linecap:butt; stroke-linejoin:miter; stroke-dasharray:none">
   <path d="M177.1428,222.8145L171.1428,228.8145L177.1428,234.8145L183.1428,228.8145z"/>
  </g>
  <g style="fill:#670748; fill-rule:nonzero">
   <path  d="M190.4511,219.7103L184.4511,225.7103L190.4511,231.7103L196.4511,225.7103z"/>
  </g>
  <g style="fill:none; stroke:#670748; stroke-width:  0.9000; stroke-linecap:butt; stroke-linejoin:miter; stroke-dasharray:none">
   <path d="M190.4511,219.7103L184.4511,225.7103L190.4511,231.7103L196.4511,225.7103z"/>
  </g>
  <g style="fill:none; stroke:#40E0D0; stroke-width:  0.9000; stroke-linecap:butt; stroke-linejoin:miter; stroke-dasharray:none">
   <path d="M83.9847,221.5714L97.2930,220.5366L110.6013,219.7461L123.9096,218.7114L137.2179,217.0372L150.5262,214.5724L163.8345,211.4682L177.1428,208.1198L190.4511,205.0156"/>
  </g>
  <g style="fill:#40E0D0; fill-rule:nonzero">
   <path  d="M83.9847,214.6432L77.9847,225.0355L89.9847,225.0355z"/>
  </g>
  <g style="fill:none; stroke:#40E0D0; stroke-width:  0.9000; stroke-linecap:butt; stroke-linejoin:miter; stroke-dasharray:none">
   <path d="M83.9847,214.6432L77.9847,225.0355L89.9847,225.0355z"/>
  </g>
  <g style="fill:#40E0D0; fill-rule:nonzero">
   <path  d="M97.2930,213.6084L91.2930,224.0007L103.2930,224.0007z"/>
  </g>
  <g style="fill:none; stroke:#40E0D0; stroke-width:  0.9000; stroke-linecap:butt; stroke-linejoin:miter; stroke-dasharray:none">
   <path d="M97.2930,213.6084L91.2930,224.0007L103.2930,224.0007z"/>
  </g>
  <g style="fill:#40E0D0; fill-rule:nonzero">
   <path  d="M110.6013,212.8179L104.6013,223.2102L116.6013,223.2102z"/>
  </g>
  <g style="fill:none; stroke:#40E0D0; stroke-width:  0.9000; stroke-linecap:butt; stroke-linejoin:miter; stroke-dasharray:none">
   <path d="M110.6013,212.8179L104.6013,223.2102L116.6013,223.2102z"/>
  </g>
  <g style="fill:#40E0D0; fill-rule:nonzero">
   <path  d="M123.9096,211.7832L117.9096,222.1755L129.9096,222.1755z"/>
  </g>
  <g style="fill:none; stroke:#40E0D0; stroke-width:  0.9000; stroke-linecap:butt; stroke-linejoin:miter; stroke-dasharray:none">
   <path d="M123.9096,211.7832L117.9096,222.1755L129.9096,222.1755z"/>
  </g>
  <g style="fill:#40E0D0; fill-rule:nonzero">
   <path  d="M137.2179,210.1090L131.2179,220.5013L143.2179,220.5013z"/>
  </g>
  <g style="fill:none; stroke:#40E0D0; stroke-width:  0.9000; stroke-linecap:butt; stroke-linejoin:miter; stroke-dasharray:none">
   <path d="M137.2179,210.1090L131.2179,220.5013L143.2179,220.5013z"/>
  </g>
  <g style="fill:#40E0D0; fill-rule:nonzero">
   <path  d="M150.5262,207.6442L144.5262,218.0365L156.5262,218.0365z"/>
  </g>
  <g style="fill:none; stroke:#40E0D0; stroke-width:  0.9000; stroke-linecap:butt; stroke-linejoin:miter; stroke-dasharray:none">
   <path d="M150.5262,207.6442L144.5262,218.0365L156.5262,218.0365z"/>
  </g>
  <g style="fill:#40E0D0; fill-rule:nonzero">
   <path  d="M163.8345,204.5400L157.8345,214.9323L169.8345,214.9323z"/>
  </g>
  <g style="fill:none; stroke:#40E0D0; stroke-width:  0.9000; stroke-linecap:butt; stroke-linejoin:miter; stroke-dasharray:none">
   <path d="M163.8345,204.5400L157.8345,214.9323L169.8345,214.9323z"/>
  </g>
  <g style="fill:#40E0D0; fill-rule:nonzero">
   <path  d="M177.1428,201.1916L171.1428,211.5839L183.1428,211.5839z"/>
  </g>
  <g style="fill:none; stroke:#40E0D0; stroke-width:  0.9000; stroke-linecap:butt; stroke-linejoin:miter; stroke-dasharray:none">
   <path d="M177.1428,201.1916L171.1428,211.5839L183.1428,211.5839z"/>
  </g>
  <g style="fill:#40E0D0; fill-rule:nonzero">
   <path  d="M190.4511,198.0874L184.4511,208.4797L196.4511,208.4797z"/>
  </g>
  <g style="fill:none; stroke:#40E0D0; stroke-width:  0.9000; stroke-linecap:butt; stroke-linejoin:miter; stroke-dasharray:none">
   <path d="M190.4511,198.0874L184.4511,208.4797L196.4511,208.4797z"/>
  </g>
  <g style="fill:none; stroke:#008B00; stroke-width:  0.9000; stroke-linecap:butt; stroke-linejoin:miter; stroke-dasharray:none">
   <path d="M83.9847,200.8767L97.2930,199.8419L110.6013,199.0514L123.9096,198.0167L137.2179,196.3425L150.5262,193.8777L163.8345,190.7735L177.1428,187.4251L190.4511,184.3209"/>
  </g>
  <g style="fill:#008B00; fill-rule:nonzero">
   <path  d="M77.0565,200.8767L87.4488,206.8767L87.4488,194.8767z"/>
  </g>
  <g style="fill:none; stroke:#008B00; stroke-width:  0.9000; stroke-linecap:butt; stroke-linejoin:miter; stroke-dasharray:none">
   <path d="M77.0565,200.8767L87.4488,206.8767L87.4488,194.8767z"/>
  </g>
  <g style="fill:#008B00; fill-rule:nonzero">
   <path  d="M90.3648,199.8419L100.7571,205.8419L100.7571,193.8419z"/>
  </g>
  <g style="fill:none; stroke:#008B00; stroke-width:  0.9000; stroke-linecap:butt; stroke-linejoin:miter; stroke-dasharray:none">
   <path d="M90.3648,199.8419L100.7571,205.8419L100.7571,193.8419z"/>
  </g>
  <g style="fill:#008B00; fill-rule:nonzero">
   <path  d="M103.6731,199.0514L114.0654,205.0514L114.0654,193.0514z"/>
  </g>
  <g style="fill:none; stroke:#008B00; stroke-width:  0.9000; stroke-linecap:butt; stroke-linejoin:miter; stroke-dasharray:none">
   <path d="M103.6731,199.0514L114.0654,205.0514L114.0654,193.0514z"/>
  </g>
  <g style="fill:#008B00; fill-rule:nonzero">
   <path  d="M116.9814,198.0167L127.3737,204.0167L127.3737,192.0167z"/>
  </g>
  <g style="fill:none; stroke:#008B00; stroke-width:  0.9000; stroke-linecap:butt; stroke-linejoin:miter; stroke-dasharray:none">
   <path d="M116.9814,198.0167L127.3737,204.0167L127.3737,192.0167z"/>
  </g>
  <g style="fill:#008B00; fill-rule:nonzero">
   <path  d="M130.2897,196.3425L140.6820,202.3425L140.6820,190.3425z"/>
  </g>
  <g style="fill:none; stroke:#008B00; stroke-width:  0.9000; stroke-linecap:butt; stroke-linejoin:miter; stroke-dasharray:none">
   <path d="M130.2897,196.3425L140.6820,202.3425L140.6820,190.3425z"/>
  </g>
  <g style="fill:#008B00; fill-rule:nonzero">
   <path  d="M143.5980,193.8777L153.9903,199.8777L153.9903,187.8777z"/>
  </g>
  <g style="fill:none; stroke:#008B00; stroke-width:  0.9000; stroke-linecap:butt; stroke-linejoin:miter; stroke-dasharray:none">
   <path d="M143.5980,193.8777L153.9903,199.8777L153.9903,187.8777z"/>
  </g>
  <g style="fill:#008B00; fill-rule:nonzero">
   <path  d="M156.9063,190.7735L167.2986,196.7735L167.2986,184.7735z"/>
  </g>
  <g style="fill:none; stroke:#008B00; stroke-width:  0.9000; stroke-linecap:butt; stroke-linejoin:miter; stroke-dasharray:none">
   <path d="M156.9063,190.7735L167.2986,196.7735L167.2986,184.7735z"/>
  </g>
  <g style="fill:#008B00; fill-rule:nonzero">
   <path  d="M170.2146,187.4251L180.6069,193.4251L180.6069,181.4251z"/>
  </g>
  <g style="fill:none; stroke:#008B00; stroke-width:  0.9000; stroke-linecap:butt; stroke-linejoin:miter; stroke-dasharray:none">
   <path d="M170.2146,187.4251L180.6069,193.4251L180.6069,181.4251z"/>
  </g>
  <g style="fill:#008B00; fill-rule:nonzero">
   <path  d="M183.5229,184.3209L193.9152,190.3209L193.9152,178.3209z"/>
  </g>
  <g style="fill:none; stroke:#008B00; stroke-width:  0.9000; stroke-linecap:butt; stroke-linejoin:miter; stroke-dasharray:none">
   <path d="M183.5229,184.3209L193.9152,190.3209L193.9152,178.3209z"/>
  </g>
  <g style="fill:none; stroke:#000000; stroke-width:  0.9000; stroke-linecap:butt; stroke-linejoin:miter; stroke-dasharray:none">
   <path d="M83.9847,180.1820L97.2930,179.1472L110.6013,178.3567L123.9096,177.3220L137.2179,175.6478L150.5262,173.1830L163.8345,170.0788L177.1428,166.7304L190.4511,163.6262"/>
  </g>
  <g style="fill:#000000; fill-rule:nonzero">
   <path  d="M77.9847,176.7179L83.9847,187.1102L89.9847,176.7179z"/>
  </g>
  <g style="fill:none; stroke:#000000; stroke-width:  0.9000; stroke-linecap:butt; stroke-linejoin:miter; stroke-dasharray:none">
   <path d="M77.9847,176.7179L83.9847,187.1102L89.9847,176.7179z"/>
  </g>
  <g style="fill:#000000; fill-rule:nonzero">
   <path  d="M91.2930,175.6831L97.2930,186.0754L103.2930,175.6831z"/>
  </g>
  <g style="fill:none; stroke:#000000; stroke-width:  0.9000; stroke-linecap:butt; stroke-linejoin:miter; stroke-dasharray:none">
   <path d="M91.2930,175.6831L97.2930,186.0754L103.2930,175.6831z"/>
  </g>
  <g style="fill:#000000; fill-rule:nonzero">
   <path  d="M104.6013,174.8926L110.6013,185.2849L116.6013,174.8926z"/>
  </g>
  <g style="fill:none; stroke:#000000; stroke-width:  0.9000; stroke-linecap:butt; stroke-linejoin:miter; stroke-dasharray:none">
   <path d="M104.6013,174.8926L110.6013,185.2849L116.6013,174.8926z"/>
  </g>
  <g style="fill:#000000; fill-rule:nonzero">
   <path  d="M117.9096,173.8579L123.9096,184.2502L129.9096,173.8579z"/>
  </g>
  <g style="fill:none; stroke:#000000; stroke-width:  0.9000; stroke-linecap:butt; stroke-linejoin:miter; stroke-dasharray:none">
   <path d="M117.9096,173.8579L123.9096,184.2502L129.9096,173.8579z"/>
  </g>
  <g style="fill:#000000; fill-rule:nonzero">
   <path  d="M131.2179,172.1837L137.2179,182.5760L143.2179,172.1837z"/>
  </g>
  <g style="fill:none; stroke:#000000; stroke-width:  0.9000; stroke-linecap:butt; stroke-linejoin:miter; stroke-dasharray:none">
   <path d="M131.2179,172.1837L137.2179,182.5760L143.2179,172.1837z"/>
  </g>
  <g style="fill:#000000; fill-rule:nonzero">
   <path  d="M144.5262,169.7189L150.5262,180.1112L156.5262,169.7189z"/>
  </g>
  <g style="fill:none; stroke:#000000; stroke-width:  0.9000; stroke-linecap:butt; stroke-linejoin:miter; stroke-dasharray:none">
   <path d="M144.5262,169.7189L150.5262,180.1112L156.5262,169.7189z"/>
  </g>
  <g style="fill:#000000; fill-rule:nonzero">
   <path  d="M157.8345,166.6147L163.8345,177.0070L169.8345,166.6147z"/>
  </g>
  <g style="fill:none; stroke:#000000; stroke-width:  0.9000; stroke-linecap:butt; stroke-linejoin:miter; stroke-dasharray:none">
   <path d="M157.8345,166.6147L163.8345,177.0070L169.8345,166.6147z"/>
  </g>
  <g style="fill:#000000; fill-rule:nonzero">
   <path  d="M171.1428,163.2663L177.1428,173.6586L183.1428,163.2663z"/>
  </g>
  <g style="fill:none; stroke:#000000; stroke-width:  0.9000; stroke-linecap:butt; stroke-linejoin:miter; stroke-dasharray:none">
   <path d="M171.1428,163.2663L177.1428,173.6586L183.1428,163.2663z"/>
  </g>
  <g style="fill:#000000; fill-rule:nonzero">
   <path  d="M184.4511,160.1621L190.4511,170.5544L196.4511,160.1621z"/>
  </g>
  <g style="fill:none; stroke:#000000; stroke-width:  0.9000; stroke-linecap:butt; stroke-linejoin:miter; stroke-dasharray:none">
   <path d="M184.4511,160.1621L190.4511,170.5544L196.4511,160.1621z"/>
  </g>
  <g style="fill:none; stroke:#FF0000; stroke-width:  0.9000; stroke-linecap:butt; stroke-linejoin:miter; stroke-dasharray:none">
   <path d="M83.9847,159.4873L97.2930,158.4526L110.6013,157.6620L123.9096,156.6273L137.2179,154.9531L150.5262,152.4883L163.8345,149.3841L177.1428,146.0357L190.4511,142.9315"/>
  </g>
  <g style="fill:#FF0000; fill-rule:nonzero">
   <path  d="M80.5206,153.4873L80.5206,165.4873L90.9129,159.4873z"/>
  </g>
  <g style="fill:none; stroke:#FF0000; stroke-width:  0.9000; stroke-linecap:butt; stroke-linejoin:miter; stroke-dasharray:none">
   <path d="M80.5206,153.4873L80.5206,165.4873L90.9129,159.4873z"/>
  </g>
  <g style="fill:#FF0000; fill-rule:nonzero">
   <path  d="M93.8289,152.4526L93.8289,164.4526L104.2212,158.4526z"/>
  </g>
  <g style="fill:none; stroke:#FF0000; stroke-width:  0.9000; stroke-linecap:butt; stroke-linejoin:miter; stroke-dasharray:none">
   <path d="M93.8289,152.4526L93.8289,164.4526L104.2212,158.4526z"/>
  </g>
  <g style="fill:#FF0000; fill-rule:nonzero">
   <path  d="M107.1372,151.6620L107.1372,163.6620L117.5295,157.6620z"/>
  </g>
  <g style="fill:none; stroke:#FF0000; stroke-width:  0.9000; stroke-linecap:butt; stroke-linejoin:miter; stroke-dasharray:none">
   <path d="M107.1372,151.6620L107.1372,163.6620L117.5295,157.6620z"/>
  </g>
  <g style="fill:#FF0000; fill-rule:nonzero">
   <path  d="M120.4455,150.6273L120.4455,162.6273L130.8378,156.6273z"/>
  </g>
  <g style="fill:none; stroke:#FF0000; stroke-width:  0.9000; stroke-linecap:butt; stroke-linejoin:miter; stroke-dasharray:none">
   <path d="M120.4455,150.6273L120.4455,162.6273L130.8378,156.6273z"/>
  </g>
  <g style="fill:#FF0000; fill-rule:nonzero">
   <path  d="M133.7538,148.9531L133.7538,160.9531L144.1461,154.9531z"/>
  </g>
  <g style="fill:none; stroke:#FF0000; stroke-width:  0.9000; stroke-linecap:butt; stroke-linejoin:miter; stroke-dasharray:none">
   <path d="M133.7538,148.9531L133.7538,160.9531L144.1461,154.9531z"/>
  </g>
  <g style="fill:#FF0000; fill-rule:nonzero">
   <path  d="M147.0621,146.4883L147.0621,158.4883L157.4544,152.4883z"/>
  </g>
  <g style="fill:none; stroke:#FF0000; stroke-width:  0.9000; stroke-linecap:butt; stroke-linejoin:miter; stroke-dasharray:none">
   <path d="M147.0621,146.4883L147.0621,158.4883L157.4544,152.4883z"/>
  </g>
  <g style="fill:#FF0000; fill-rule:nonzero">
   <path  d="M160.3704,143.3841L160.3704,155.3841L170.7627,149.3841z"/>
  </g>
  <g style="fill:none; stroke:#FF0000; stroke-width:  0.9000; stroke-linecap:butt; stroke-linejoin:miter; stroke-dasharray:none">
   <path d="M160.3704,143.3841L160.3704,155.3841L170.7627,149.3841z"/>
  </g>
  <g style="fill:#FF0000; fill-rule:nonzero">
   <path  d="M173.6787,140.0357L173.6787,152.0357L184.0710,146.0357z"/>
  </g>
  <g style="fill:none; stroke:#FF0000; stroke-width:  0.9000; stroke-linecap:butt; stroke-linejoin:miter; stroke-dasharray:none">
   <path d="M173.6787,140.0357L173.6787,152.0357L184.0710,146.0357z"/>
  </g>
  <g style="fill:#FF0000; fill-rule:nonzero">
   <path  d="M186.9870,136.9315L186.9870,148.9315L197.3793,142.9315z"/>
  </g>
  <g style="fill:none; stroke:#FF0000; stroke-width:  0.9000; stroke-linecap:butt; stroke-linejoin:miter; stroke-dasharray:none">
   <path d="M186.9870,136.9315L186.9870,148.9315L197.3793,142.9315z"/>
  </g>
  <g style="fill:none; stroke:#00FF00; stroke-width:  0.9000; stroke-linecap:butt; stroke-linejoin:miter; stroke-dasharray:none">
   <path d="M83.9847,138.7926L97.2930,137.7579L110.6013,136.9673L123.9096,135.9326L137.2179,134.2584L150.5262,131.7937L163.8345,128.6895L177.1428,125.3411L190.4511,122.2368"/>
  </g>
  <g style="fill:#FFFFFF; fill-rule:nonzero">
   <ellipse  rx="6.0000" ry="6.0000" cx="83.9847" cy="138.7926"/>
  </g>
  <g style="fill:none; stroke:#00FF00; stroke-width:  0.9000; stroke-linecap:butt; stroke-linejoin:miter; stroke-dasharray:none">
   <ellipse  rx="6.0000" ry="6.0000" cx="83.9847" cy="138.7926"/>
  </g>
  <g style="fill:#FFFFFF; fill-rule:nonzero">
   <ellipse  rx="6.0000" ry="6.0000" cx="97.2930" cy="137.7579"/>
  </g>
  <g style="fill:none; stroke:#00FF00; stroke-width:  0.9000; stroke-linecap:butt; stroke-linejoin:miter; stroke-dasharray:none">
   <ellipse  rx="6.0000" ry="6.0000" cx="97.2930" cy="137.7579"/>
  </g>
  <g style="fill:#FFFFFF; fill-rule:nonzero">
   <ellipse  rx="6.0000" ry="6.0000" cx="110.6013" cy="136.9673"/>
  </g>
  <g style="fill:none; stroke:#00FF00; stroke-width:  0.9000; stroke-linecap:butt; stroke-linejoin:miter; stroke-dasharray:none">
   <ellipse  rx="6.0000" ry="6.0000" cx="110.6013" cy="136.9673"/>
  </g>
  <g style="fill:#FFFFFF; fill-rule:nonzero">
   <ellipse  rx="6.0000" ry="6.0000" cx="123.9096" cy="135.9326"/>
  </g>
  <g style="fill:none; stroke:#00FF00; stroke-width:  0.9000; stroke-linecap:butt; stroke-linejoin:miter; stroke-dasharray:none">
   <ellipse  rx="6.0000" ry="6.0000" cx="123.9096" cy="135.9326"/>
  </g>
  <g style="fill:#FFFFFF; fill-rule:nonzero">
   <ellipse  rx="6.0000" ry="6.0000" cx="137.2179" cy="134.2584"/>
  </g>
  <g style="fill:none; stroke:#00FF00; stroke-width:  0.9000; stroke-linecap:butt; stroke-linejoin:miter; stroke-dasharray:none">
   <ellipse  rx="6.0000" ry="6.0000" cx="137.2179" cy="134.2584"/>
  </g>
  <g style="fill:#FFFFFF; fill-rule:nonzero">
   <ellipse  rx="6.0000" ry="6.0000" cx="150.5262" cy="131.7937"/>
  </g>
  <g style="fill:none; stroke:#00FF00; stroke-width:  0.9000; stroke-linecap:butt; stroke-linejoin:miter; stroke-dasharray:none">
   <ellipse  rx="6.0000" ry="6.0000" cx="150.5262" cy="131.7937"/>
  </g>
  <g style="fill:#FFFFFF; fill-rule:nonzero">
   <ellipse  rx="6.0000" ry="6.0000" cx="163.8345" cy="128.6895"/>
  </g>
  <g style="fill:none; stroke:#00FF00; stroke-width:  0.9000; stroke-linecap:butt; stroke-linejoin:miter; stroke-dasharray:none">
   <ellipse  rx="6.0000" ry="6.0000" cx="163.8345" cy="128.6895"/>
  </g>
  <g style="fill:#FFFFFF; fill-rule:nonzero">
   <ellipse  rx="6.0000" ry="6.0000" cx="177.1428" cy="125.3411"/>
  </g>
  <g style="fill:none; stroke:#00FF00; stroke-width:  0.9000; stroke-linecap:butt; stroke-linejoin:miter; stroke-dasharray:none">
   <ellipse  rx="6.0000" ry="6.0000" cx="177.1428" cy="125.3411"/>
  </g>
  <g style="fill:#FFFFFF; fill-rule:nonzero">
   <ellipse  rx="6.0000" ry="6.0000" cx="190.4511" cy="122.2368"/>
  </g>
  <g style="fill:none; stroke:#00FF00; stroke-width:  0.9000; stroke-linecap:butt; stroke-linejoin:miter; stroke-dasharray:none">
   <ellipse  rx="6.0000" ry="6.0000" cx="190.4511" cy="122.2368"/>
  </g>
  <g style="fill:none; stroke:#0000FF; stroke-width:  0.9000; stroke-linecap:butt; stroke-linejoin:miter; stroke-dasharray:none">
   <path d="M83.9847,118.0979L97.2930,117.0632L110.6013,116.2726L123.9096,115.2379L137.2179,113.5637L150.5262,111.0990L163.8345,107.9948L177.1428,104.6464L190.4511,101.5422"/>
  </g>
  <g style="fill:#FFFFFF; fill-rule:nonzero">
   <path  d="M78.8847,123.1979L78.8847,112.9979L89.0847,112.9979L89.0847,123.1979z"/>
  </g>
  <g style="fill:none; stroke:#0000FF; stroke-width:  0.9000; stroke-linecap:butt; stroke-linejoin:miter; stroke-dasharray:none">
   <path d="M78.8847,123.1979L78.8847,112.9979L89.0847,112.9979L89.0847,123.1979z"/>
  </g>
  <g style="fill:#FFFFFF; fill-rule:nonzero">
   <path  d="M92.1930,122.1632L92.1930,111.9632L102.3930,111.9632L102.3930,122.1632z"/>
  </g>
  <g style="fill:none; stroke:#0000FF; stroke-width:  0.9000; stroke-linecap:butt; stroke-linejoin:miter; stroke-dasharray:none">
   <path d="M92.1930,122.1632L92.1930,111.9632L102.3930,111.9632L102.3930,122.1632z"/>
  </g>
  <g style="fill:#FFFFFF; fill-rule:nonzero">
   <path  d="M105.5013,121.3726L105.5013,111.1726L115.7013,111.1726L115.7013,121.3726z"/>
  </g>
  <g style="fill:none; stroke:#0000FF; stroke-width:  0.9000; stroke-linecap:butt; stroke-linejoin:miter; stroke-dasharray:none">
   <path d="M105.5013,121.3726L105.5013,111.1726L115.7013,111.1726L115.7013,121.3726z"/>
  </g>
  <g style="fill:#FFFFFF; fill-rule:nonzero">
   <path  d="M118.8096,120.3379L118.8096,110.1379L129.0096,110.1379L129.0096,120.3379z"/>
  </g>
  <g style="fill:none; stroke:#0000FF; stroke-width:  0.9000; stroke-linecap:butt; stroke-linejoin:miter; stroke-dasharray:none">
   <path d="M118.8096,120.3379L118.8096,110.1379L129.0096,110.1379L129.0096,120.3379z"/>
  </g>
  <g style="fill:#FFFFFF; fill-rule:nonzero">
   <path  d="M132.1179,118.6637L132.1179,108.4637L142.3179,108.4637L142.3179,118.6637z"/>
  </g>
  <g style="fill:none; stroke:#0000FF; stroke-width:  0.9000; stroke-linecap:butt; stroke-linejoin:miter; stroke-dasharray:none">
   <path d="M132.1179,118.6637L132.1179,108.4637L142.3179,108.4637L142.3179,118.6637z"/>
  </g>
  <g style="fill:#FFFFFF; fill-rule:nonzero">
   <path  d="M145.4262,116.1990L145.4262,105.9990L155.6262,105.9990L155.6262,116.1990z"/>
  </g>
  <g style="fill:none; stroke:#0000FF; stroke-width:  0.9000; stroke-linecap:butt; stroke-linejoin:miter; stroke-dasharray:none">
   <path d="M145.4262,116.1990L145.4262,105.9990L155.6262,105.9990L155.6262,116.1990z"/>
  </g>
  <g style="fill:#FFFFFF; fill-rule:nonzero">
   <path  d="M158.7345,113.0948L158.7345,102.8948L168.9345,102.8948L168.9345,113.0948z"/>
  </g>
  <g style="fill:none; stroke:#0000FF; stroke-width:  0.9000; stroke-linecap:butt; stroke-linejoin:miter; stroke-dasharray:none">
   <path d="M158.7345,113.0948L158.7345,102.8948L168.9345,102.8948L168.9345,113.0948z"/>
  </g>
  <g style="fill:#FFFFFF; fill-rule:nonzero">
   <path  d="M172.0428,109.7464L172.0428,99.5464L182.2428,99.5464L182.2428,109.7464z"/>
  </g>
  <g style="fill:none; stroke:#0000FF; stroke-width:  0.9000; stroke-linecap:butt; stroke-linejoin:miter; stroke-dasharray:none">
   <path d="M172.0428,109.7464L172.0428,99.5464L182.2428,99.5464L182.2428,109.7464z"/>
  </g>
  <g style="fill:#FFFFFF; fill-rule:nonzero">
   <path  d="M185.3511,106.6422L185.3511,96.4422L195.5511,96.4422L195.5511,106.6422z"/>
  </g>
  <g style="fill:none; stroke:#0000FF; stroke-width:  0.9000; stroke-linecap:butt; stroke-linejoin:miter; stroke-dasharray:none">
   <path d="M185.3511,106.6422L185.3511,96.4422L195.5511,96.4422L195.5511,106.6422z"/>
  </g>
  <g style="fill:none; stroke:#000000; stroke-width:  0.9000; stroke-linecap:butt; stroke-linejoin:miter; stroke-dasharray:none">
   <path d="M83.9847,494.3460L83.9847,488.3460"/>
   <path d="M83.9847,80.4522L83.9847,86.4522"/>
   <path d="M110.6013,494.3460L110.6013,488.3460"/>
   <path d="M110.6013,80.4522L110.6013,86.4522"/>
   <path d="M137.2179,494.3460L137.2179,488.3460"/>
   <path d="M137.2179,80.4522L137.2179,86.4522"/>
   <path d="M163.8345,494.3460L163.8345,488.3460"/>
   <path d="M163.8345,80.4522L163.8345,86.4522"/>
   <path d="M190.4511,494.3460L190.4511,488.3460"/>
   <path d="M190.4511,80.4522L190.4511,86.4522"/>
   <path d="M70.6764,494.3460L70.6764,482.3460"/>
   <path d="M70.6764,80.4522L70.6764,92.4522"/>
   <path d="M97.2930,494.3460L97.2930,482.3460"/>
   <path d="M97.2930,80.4522L97.2930,92.4522"/>
   <path d="M123.9096,494.3460L123.9096,482.3460"/>
   <path d="M123.9096,80.4522L123.9096,92.4522"/>
   <path d="M150.5262,494.3460L150.5262,482.3460"/>
   <path d="M150.5262,80.4522L150.5262,92.4522"/>
   <path d="M177.1428,494.3460L177.1428,482.3460"/>
   <path d="M177.1428,80.4522L177.1428,92.4522"/>
   <path d="M203.7594,494.3460L203.7594,482.3460"/>
   <path d="M203.7594,80.4522L203.7594,92.4522"/>
  </g>
  <g style="fill:#000000; fill-rule:nonzero">
   <text   style="font-family:Times; font-style:normal; font-weight:bold; font-size:600.0000" transform="matrix(0.0280,-0.0000,-0.0000,0.0280,59.6764,511.3460)">0.0</text>
   <text   style="font-family:Times; font-style:normal; font-weight:bold; font-size:600.0000" transform="matrix(0.0280,-0.0000,-0.0000,0.0280,86.7930,511.3460)">2.0</text>
   <text   style="font-family:Times; font-style:normal; font-weight:bold; font-size:600.0000" transform="matrix(0.0280,-0.0000,-0.0000,0.0280,113.4096,511.3460)">4.0</text>
   <text   style="font-family:Times; font-style:normal; font-weight:bold; font-size:600.0000" transform="matrix(0.0280,-0.0000,-0.0000,0.0280,139.5262,511.3460)">6.0</text>
   <text   style="font-family:Times; font-style:normal; font-weight:bold; font-size:600.0000" transform="matrix(0.0280,-0.0000,-0.0000,0.0280,166.6428,511.3460)">8.0</text>
   <text   style="font-family:Times; font-style:normal; font-weight:bold; font-size:600.0000" transform="matrix(0.0280,-0.0000,-0.0000,0.0280,188.7594,511.3460)">10.0</text>
  </g>
  <g style="fill:none; stroke:#000000; stroke-width:  0.9000; stroke-linecap:butt; stroke-linejoin:miter; stroke-dasharray:none">
   <path d="M70.6764,442.6093L76.6764,442.6093"/>
   <path d="M203.7594,442.6093L197.7594,442.6093"/>
   <path d="M70.6764,339.1358L76.6764,339.1358"/>
   <path d="M203.7594,339.1358L197.7594,339.1358"/>
   <path d="M70.6764,235.6624L76.6764,235.6624"/>
   <path d="M203.7594,235.6624L197.7594,235.6624"/>
   <path d="M70.6764,132.1889L76.6764,132.1889"/>
   <path d="M203.7594,132.1889L197.7594,132.1889"/>
   <path d="M70.6764,494.3460L82.6764,494.3460"/>
   <path d="M203.7594,494.3460L191.7594,494.3460"/>
   <path d="M70.6764,390.8725L82.6764,390.8725"/>
   <path d="M203.7594,390.8725L191.7594,390.8725"/>
   <path d="M70.6764,287.3991L82.6764,287.3991"/>
   <path d="M203.7594,287.3991L191.7594,287.3991"/>
   <path d="M70.6764,183.9256L82.6764,183.9256"/>
   <path d="M203.7594,183.9256L191.7594,183.9256"/>
   <path d="M70.6764,80.4522L82.6764,80.4522"/>
   <path d="M203.7594,80.4522L191.7594,80.4522"/>
  </g>
  <g style="fill:#000000; fill-rule:nonzero">
   <text   style="font-family:Times; font-style:normal; font-weight:bold; font-size:600.0000" transform="matrix(0.0280,-0.0000,-0.0000,0.0280,43.6764,499.8460)">0.0</text>
   <text   style="font-family:Times; font-style:normal; font-weight:bold; font-size:600.0000" transform="matrix(0.0280,-0.0000,-0.0000,0.0280,27.6764,396.3725)">100.0</text>
   <text   style="font-family:Times; font-style:normal; font-weight:bold; font-size:600.0000" transform="matrix(0.0280,-0.0000,-0.0000,0.0280,27.6764,292.8991)">200.0</text>
   <text   style="font-family:Times; font-style:normal; font-weight:bold; font-size:600.0000" transform="matrix(0.0280,-0.0000,-0.0000,0.0280,27.6764,189.4256)">300.0</text>
   <text   style="font-family:Times; font-style:normal; font-weight:bold; font-size:600.0000" transform="matrix(0.0280,-0.0000,-0.0000,0.0280,27.6764,85.9522)">400.0</text>
  </g>
  <g style="fill:none; stroke:#000000; stroke-width:  0.9000; stroke-linecap:butt; stroke-linejoin:miter; stroke-dasharray:none">
   <path d="M70.6764,494.3460L70.6764,80.4522L203.7594,80.4522L203.7594,494.3460z"/>
  </g>
  <g style="fill:#FFFFFF; fill-rule:nonzero">
   <path  d="M218.7972,78.5136L218.7972,459.0136L423.7254,459.0136L423.7254,78.5136z"/>
  </g>
  <g style="fill:#000000; fill-rule:nonzero">
   <text   style="font-family:Times; font-style:normal; font-weight:bold; font-size:600.0000" transform="matrix(0.0280,-0.0000,-0.0000,0.0280,266.7254,96.0136)">Circle</text>
  </g>
  <g style="fill:none; stroke:#000000; stroke-width:  0.9000; stroke-linecap:butt; stroke-linejoin:miter; stroke-dasharray:none">
   <path d="M231.7254,90.5136L255.7254,90.5136"/>
   <ellipse  rx="6.0000" ry="6.0000" cx="231.7254" cy="90.5136"/>
   <ellipse  rx="6.0000" ry="6.0000" cx="255.7254" cy="90.5136"/>
  </g>
  <g style="fill:#000000; fill-rule:nonzero">
   <text   style="font-family:Times; font-style:normal; font-weight:bold; font-size:600.0000" transform="matrix(0.0280,-0.0000,-0.0000,0.0280,266.7254,113.0136)">Square</text>
  </g>
  <g style="fill:none; stroke:#FF0000; stroke-width:  0.9000; stroke-linecap:butt; stroke-linejoin:miter; stroke-dasharray:none">
   <path d="M231.7254,109.5136L255.7254,109.5136"/>
   <path d="M226.6254,114.6136L226.6254,104.4136L236.8254,104.4136L236.8254,114.6136z"/>
   <path d="M250.6254,114.6136L250.6254,104.4136L260.8254,104.4136L260.8254,114.6136z"/>
  </g>
  <g style="fill:#000000; fill-rule:nonzero">
   <text   style="font-family:Times; font-style:normal; font-weight:bold; font-size:600.0000" transform="matrix(0.0280,-0.0000,-0.0000,0.0280,267.7254,134.0136)">Diamond</text>
  </g>
  <g style="fill:none; stroke:#00FF00; stroke-width:  0.9000; stroke-linecap:butt; stroke-linejoin:miter; stroke-dasharray:none">
   <path d="M231.7254,128.5136L255.7254,128.5136"/>
   <path d="M231.7254,122.5136L225.7254,128.5136L231.7254,134.5136L237.7254,128.5136z"/>
   <path d="M255.7254,122.5136L249.7254,128.5136L255.7254,134.5136L261.7254,128.5136z"/>
  </g>
  <g style="fill:#000000; fill-rule:nonzero">
   <text   style="font-family:Times; font-style:normal; font-weight:bold; font-size:600.0000" transform="matrix(0.0280,-0.0000,-0.0000,0.0280,266.7254,151.0136)">Triangle up</text>
  </g>
  <g style="fill:none; stroke:#0000FF; stroke-width:  0.9000; stroke-linecap:butt; stroke-linejoin:miter; stroke-dasharray:none">
   <path d="M231.7254,147.5136L255.7254,147.5136"/>
   <path d="M231.7254,140.5854L225.7254,150.9777L237.7254,150.9777z"/>
   <path d="M255.7254,140.5854L249.7254,150.9777L261.7254,150.9777z"/>
  </g>
  <g style="fill:#000000; fill-rule:nonzero">
   <text   style="font-family:Times; font-style:normal; font-weight:bold; font-size:600.0000" transform="matrix(0.0280,-0.0000,-0.0000,0.0280,266.7254,172.0136)">Triangle left</text>
  </g>
  <g style="fill:none; stroke:#FFFF00; stroke-width:  0.9000; stroke-linecap:butt; stroke-linejoin:miter; stroke-dasharray:none">
   <path d="M231.7254,168.5136L255.7254,168.5136"/>
   <path d="M224.7972,168.5136L235.1895,174.5136L235.1895,162.5136z"/>
   <path d="M248.7972,168.5136L259.1895,174.5136L259.1895,162.5136z"/>
  </g>
  <g style="fill:#000000; fill-rule:nonzero">
   <text   style="font-family:Times; font-style:normal; font-weight:bold; font-size:600.0000" transform="matrix(0.0280,-0.0000,-0.0000,0.0280,266.7254,193.0136)">Triangle down</text>
  </g>
  <g style="fill:none; stroke:#BC8F8F; stroke-width:  0.9000; stroke-linecap:butt; stroke-linejoin:miter; stroke-dasharray:none">
   <path d="M231.7254,189.5136L255.7254,189.5136"/>
   <path d="M225.7254,186.0495L231.7254,196.4418L237.7254,186.0495z"/>
   <path d="M249.7254,186.0495L255.7254,196.4418L261.7254,186.0495z"/>
  </g>
  <g style="fill:#000000; fill-rule:nonzero">
   <text   style="font-family:Times; font-style:normal; font-weight:bold; font-size:600.0000" transform="matrix(0.0280,-0.0000,-0.0000,0.0280,266.7254,214.0136)">Triangle right</text>
  </g>
  <g style="fill:none; stroke:#DCDCDC; stroke-width:  0.9000; stroke-linecap:butt; stroke-linejoin:miter; stroke-dasharray:none">
   <path d="M231.7254,210.5136L255.7254,210.5136"/>
   <path d="M228.2613,204.5136L228.2613,216.5136L238.6536,210.5136z"/>
   <path d="M252.2613,204.5136L252.2613,216.5136L262.6536,210.5136z"/>
  </g>
  <g style="fill:#000000; fill-rule:nonzero">
   <text   style="font-family:Times; font-style:normal; font-weight:bold; font-size:600.0000" transform="matrix(0.0280,-0.0000,-0.0000,0.0280,267.7254,235.0136)">Plus</text>
  </g>
  <g style="fill:none; stroke:#9400D3; stroke-width:  0.9000; stroke-linecap:butt; stroke-linejoin:miter; stroke-dasharray:none">
   <path d="M231.7254,229.5136L255.7254,229.5136"/>
   <path d="M225.7254,229.5136L237.7254,229.5136"/>
   <path d="M231.7254,235.5136L231.7254,223.5136"/>
   <path d="M249.7254,229.5136L261.7254,229.5136"/>
   <path d="M255.7254,235.5136L255.7254,223.5136"/>
  </g>
  <g style="fill:#000000; fill-rule:nonzero">
   <text   style="font-family:Times; font-style:normal; font-weight:bold; font-size:600.0000" transform="matrix(0.0280,-0.0000,-0.0000,0.0280,267.7254,252.0136)">X</text>
  </g>
  <g style="fill:none; stroke:#00FFFF; stroke-width:  0.9000; stroke-linecap:butt; stroke-linejoin:miter; stroke-dasharray:none">
   <path d="M231.7254,246.5136L255.7254,246.5136"/>
   <path d="M227.4828,250.7562L235.9680,242.2710"/>
   <path d="M227.4828,242.2710L235.9680,250.7562"/>
   <path d="M251.4828,250.7562L259.9680,242.2710"/>
   <path d="M251.4828,242.2710L259.9680,250.7562"/>
  </g>
  <g style="fill:#000000; fill-rule:nonzero">
   <text   style="font-family:Times; font-style:normal; font-weight:bold; font-size:600.0000" transform="matrix(0.0280,-0.0000,-0.0000,0.0280,266.7254,269.0136)">Splat</text>
  </g>
  <g style="fill:none; stroke:#FF00FF; stroke-width:  0.9000; stroke-linecap:butt; stroke-linejoin:miter; stroke-dasharray:none">
   <path d="M231.7254,265.0136L255.7254,265.0136"/>
   <path d="M225.7254,265.0136L237.7254,265.0136"/>
   <path d="M231.7254,271.0136L231.7254,259.0136"/>
   <path d="M227.4828,269.2562L235.9680,260.7710"/>
   <path d="M227.4828,260.7710L235.9680,269.2562"/>
   <path d="M249.7254,265.0136L261.7254,265.0136"/>
   <path d="M255.7254,271.0136L255.7254,259.0136"/>
   <path d="M251.4828,269.2562L259.9680,260.7710"/>
   <path d="M251.4828,260.7710L259.9680,269.2562"/>
  </g>
  <g style="fill:#000000; fill-rule:nonzero">
   <text   style="font-family:Times; font-style:normal; font-weight:bold; font-size:600.0000" transform="matrix(0.0280,-0.0000,-0.0000,0.0280,267.7254,289.0136)">Filled Circle</text>
  </g>
  <g style="fill:none; stroke:#FFA500; stroke-width:  0.9000; stroke-linecap:butt; stroke-linejoin:miter; stroke-dasharray:none">
   <path d="M231.7254,283.5136L255.7254,283.5136"/>
  </g>
  <g style="fill:#FFA500; fill-rule:nonzero">
   <ellipse  rx="6.0000" ry="6.0000" cx="231.7254" cy="283.5136"/>
  </g>
  <g style="fill:none; stroke:#FFA500; stroke-width:  0.9000; stroke-linecap:butt; stroke-linejoin:miter; stroke-dasharray:none">
   <ellipse  rx="6.0000" ry="6.0000" cx="231.7254" cy="283.5136"/>
  </g>
  <g style="fill:#FFA500; fill-rule:nonzero">
   <ellipse  rx="6.0000" ry="6.0000" cx="255.7254" cy="283.5136"/>
  </g>
  <g style="fill:none; stroke:#FFA500; stroke-width:  0.9000; stroke-linecap:butt; stroke-linejoin:miter; stroke-dasharray:none">
   <ellipse  rx="6.0000" ry="6.0000" cx="255.7254" cy="283.5136"/>
  </g>
  <g style="fill:#000000; fill-rule:nonzero">
   <text   style="font-family:Times; font-style:normal; font-weight:bold; font-size:600.0000" transform="matrix(0.0280,-0.0000,-0.0000,0.0280,267.7254,306.0136)">Filled Square</text>
  </g>
  <g style="fill:none; stroke:#7221BC; stroke-width:  0.9000; stroke-linecap:butt; stroke-linejoin:miter; stroke-dasharray:none">
   <path d="M231.7254,302.5136L255.7254,302.5136"/>
  </g>
  <g style="fill:#7221BC; fill-rule:nonzero">
   <path  d="M226.6254,307.6136L226.6254,297.4136L236.8254,297.4136L236.8254,307.6136z"/>
  </g>
  <g style="fill:none; stroke:#7221BC; stroke-width:  0.9000; stroke-linecap:butt; stroke-linejoin:miter; stroke-dasharray:none">
   <path d="M226.6254,307.6136L226.6254,297.4136L236.8254,297.4136L236.8254,307.6136z"/>
  </g>
  <g style="fill:#7221BC; fill-rule:nonzero">
   <path  d="M250.6254,307.6136L250.6254,297.4136L260.8254,297.4136L260.8254,307.6136z"/>
  </g>
  <g style="fill:none; stroke:#7221BC; stroke-width:  0.9000; stroke-linecap:butt; stroke-linejoin:miter; stroke-dasharray:none">
   <path d="M250.6254,307.6136L250.6254,297.4136L260.8254,297.4136L260.8254,307.6136z"/>
  </g>
  <g style="fill:#000000; fill-rule:nonzero">
   <text   style="font-family:Times; font-style:normal; font-weight:bold; font-size:600.0000" transform="matrix(0.0280,-0.0000,-0.0000,0.0280,267.7254,327.0136)">Filled Diamond</text>
  </g>
  <g style="fill:none; stroke:#670748; stroke-width:  0.9000; stroke-linecap:butt; stroke-linejoin:miter; stroke-dasharray:none">
   <path d="M231.7254,321.5136L255.7254,321.5136"/>
  </g>
  <g style="fill:#670748; fill-rule:nonzero">
   <path  d="M231.7254,315.5136L225.7254,321.5136L231.7254,327.5136L237.7254,321.5136z"/>
  </g>
  <g style="fill:none; stroke:#670748; stroke-width:  0.9000; stroke-linecap:butt; stroke-linejoin:miter; stroke-dasharray:none">
   <path d="M231.7254,315.5136L225.7254,321.5136L231.7254,327.5136L237.7254,321.5136z"/>
  </g>
  <g style="fill:#670748; fill-rule:nonzero">
   <path  d="M255.7254,315.5136L249.7254,321.5136L255.7254,327.5136L261.7254,321.5136z"/>
  </g>
  <g style="fill:none; stroke:#670748; stroke-width:  0.9000; stroke-linecap:butt; stroke-linejoin:miter; stroke-dasharray:none">
   <path d="M255.7254,315.5136L249.7254,321.5136L255.7254,327.5136L261.7254,321.5136z"/>
  </g>
  <g style="fill:#000000; fill-rule:nonzero">
   <text   style="font-family:Times; font-style:normal; font-weight:bold; font-size:600.0000" transform="matrix(0.0280,-0.0000,-0.0000,0.0280,267.7254,344.0136)">Filled Triangle up</text>
  </g>
  <g style="fill:none; stroke:#40E0D0; stroke-width:  0.9000; stroke-linecap:butt; stroke-linejoin:miter; stroke-dasharray:none">
   <path d="M231.7254,340.5136L255.7254,340.5136"/>
  </g>
  <g style="fill:#40E0D0; fill-rule:nonzero">
   <path  d="M231.7254,333.5854L225.7254,343.9777L237.7254,343.9777z"/>
  </g>
  <g style="fill:none; stroke:#40E0D0; stroke-width:  0.9000; stroke-linecap:butt; stroke-linejoin:miter; stroke-dasharray:none">
   <path d="M231.7254,333.5854L225.7254,343.9777L237.7254,343.9777z"/>
  </g>
  <g style="fill:#40E0D0; fill-rule:nonzero">
   <path  d="M255.7254,333.5854L249.7254,343.9777L261.7254,343.9777z"/>
  </g>
  <g style="fill:none; stroke:#40E0D0; stroke-width:  0.9000; stroke-linecap:butt; stroke-linejoin:miter; stroke-dasharray:none">
   <path d="M255.7254,333.5854L249.7254,343.9777L261.7254,343.9777z"/>
  </g>
  <g style="fill:#000000; fill-rule:nonzero">
   <text   style="font-family:Times; font-style:normal; font-weight:bold; font-size:600.0000" transform="matrix(0.0280,-0.0000,-0.0000,0.0280,267.7254,365.0136)">Filled Triangle left</text>
  </g>
  <g style="fill:none; stroke:#008B00; stroke-width:  0.9000; stroke-linecap:butt; stroke-linejoin:miter; stroke-dasharray:none">
   <path d="M231.7254,361.5136L255.7254,361.5136"/>
  </g>
  <g style="fill:#008B00; fill-rule:nonzero">
   <path  d="M224.7972,361.5136L235.1895,367.5136L235.1895,355.5136z"/>
  </g>
  <g style="fill:none; stroke:#008B00; stroke-width:  0.9000; stroke-linecap:butt; stroke-linejoin:miter; stroke-dasharray:none">
   <path d="M224.7972,361.5136L235.1895,367.5136L235.1895,355.5136z"/>
  </g>
  <g style="fill:#008B00; fill-rule:nonzero">
   <path  d="M248.7972,361.5136L259.1895,367.5136L259.1895,355.5136z"/>
  </g>
  <g style="fill:none; stroke:#008B00; stroke-width:  0.9000; stroke-linecap:butt; stroke-linejoin:miter; stroke-dasharray:none">
   <path d="M248.7972,361.5136L259.1895,367.5136L259.1895,355.5136z"/>
  </g>
  <g style="fill:#000000; fill-rule:nonzero">
   <text   style="font-family:Times; font-style:normal; font-weight:bold; font-size:600.0000" transform="matrix(0.0280,-0.0000,-0.0000,0.0280,267.7254,386.0136)">Filled Triangle down</text>
  </g>
  <g style="fill:none; stroke:#000000; stroke-width:  0.9000; stroke-linecap:butt; stroke-linejoin:miter; stroke-dasharray:none">
   <path d="M231.7254,382.5136L255.7254,382.5136"/>
  </g>
  <g style="fill:#000000; fill-rule:nonzero">
   <path  d="M225.7254,379.0495L231.7254,389.4418L237.7254,379.0495z"/>
  </g>
  <g style="fill:none; stroke:#000000; stroke-width:  0.9000; stroke-linecap:butt; stroke-linejoin:miter; stroke-dasharray:none">
   <path d="M225.7254,379.0495L231.7254,389.4418L237.7254,379.0495z"/>
  </g>
  <g style="fill:#000000; fill-rule:nonzero">
   <path  d="M249.7254,379.0495L255.7254,389.4418L261.7254,379.0495z"/>
  </g>
  <g style="fill:none; stroke:#000000; stroke-width:  0.9000; stroke-linecap:butt; stroke-linejoin:miter; stroke-dasharray:none">
   <path d="M249.7254,379.0495L255.7254,389.4418L261.7254,379.0495z"/>
  </g>
  <g style="fill:#000000; fill-rule:nonzero">
   <text   style="font-family:Times; font-style:normal; font-weight:bold; font-size:600.0000" transform="matrix(0.0280,-0.0000,-0.0000,0.0280,267.7254,407.0136)">Filled Triangle right</text>
  </g>
  <g style="fill:none; stroke:#FF0000; stroke-width:  0.9000; stroke-linecap:butt; stroke-linejoin:miter; stroke-dasharray:none">
   <path d="M231.7254,403.5136L255.7254,403.5136"/>
  </g>
  <g style="fill:#FF0000; fill-rule:nonzero">
   <path  d="M228.2613,397.5136L228.2613,409.5136L238.6536,403.5136z"/>
  </g>
  <g style="fill:none; stroke:#FF0000; stroke-width:  0.9000; stroke-linecap:butt; stroke-linejoin:miter; stroke-dasharray:none">
   <path d="M228.2613,397.5136L228.2613,409.5136L238.6536,403.5136z"/>
  </g>
  <g style="fill:#FF0000; fill-rule:nonzero">
   <path  d="M252.2613,397.5136L252.2613,409.5136L262.6536,403.5136z"/>
  </g>
  <g style="fill:none; stroke:#FF0000; stroke-width:  0.9000; stroke-linecap:butt; stroke-linejoin:miter; stroke-dasharray:none">
   <path d="M252.2613,397.5136L252.2613,409.5136L262.6536,403.5136z"/>
  </g>
  <g style="fill:#000000; fill-rule:nonzero">
   <text   style="font-family:Times; font-style:normal; font-weight:bold; font-size:600.0000" transform="matrix(0.0280,-0.0000,-0.0000,0.0280,266.7254,428.0136)">Opaque Circle</text>
  </g>
  <g style="fill:none; stroke:#00FF00; stroke-width:  0.9000; stroke-linecap:butt; stroke-linejoin:miter; stroke-dasharray:none">
   <path d="M231.7254,424.5136L255.7254,424.5136"/>
  </g>
  <g style="fill:#FFFFFF; fill-rule:nonzero">
   <ellipse  rx="6.0000" ry="6.0000" cx="231.7254" cy="424.5136"/>
  </g>
  <g style="fill:none; stroke:#00FF00; stroke-width:  0.9000; stroke-linecap:butt; stroke-linejoin:miter; stroke-dasharray:none">
   <ellipse  rx="6.0000" ry="6.0000" cx="231.7254" cy="424.5136"/>
  </g>
  <g style="fill:#FFFFFF; fill-rule:nonzero">
   <ellipse  rx="6.0000" ry="6.0000" cx="255.7254" cy="424.5136"/>
  </g>
  <g style="fill:none; stroke:#00FF00; stroke-width:  0.9000; stroke-linecap:butt; stroke-linejoin:miter; stroke-dasharray:none">
   <ellipse  rx="6.0000" ry="6.0000" cx="255.7254" cy="424.5136"/>
  </g>
  <g style="fill:#000000; fill-rule:nonzero">
   <text   style="font-family:Times; font-style:normal; font-weight:bold; font-size:600.0000" transform="matrix(0.0280,-0.0000,-0.0000,0.0280,266.7254,449.0136)">Opaque Square</text>
  </g>
  <g style="fill:none; stroke:#0000FF; stroke-width:  0.9000; stroke-linecap:butt; stroke-linejoin:miter; stroke-dasharray:none">
   <path d="M231.7254,445.5136L255.7254,445.5136"/>
  </g>
  <g style="fill:#FFFFFF; fill-rule:nonzero">
   <path  d="M226.6254,450.6136L226.6254,440.4136L236.8254,440.4136L236.8254,450.6136z"/>
  </g>
  <g style="fill:none; stroke:#0000FF; stroke-width:  0.9000; stroke-linecap:butt; stroke-linejoin:miter; stroke-dasharray:none">
   <path d="M226.6254,450.6136L226.6254,440.4136L236.8254,440.4136L236.8254,450.6136z"/>
  </g>
  <g style="fill:#FFFFFF; fill-rule:nonzero">
   <path  d="M250.6254,450.6136L250.6254,440.4136L260.8254,440.4136L260.8254,450.6136z"/>
  </g>
  <g style="fill:none; stroke:#0000FF; stroke-width:  0.9000; stroke-linecap:butt; stroke-linejoin:miter; stroke-dasharray:none">
   <path d="M250.6254,450.6136L250.6254,440.4136L260.8254,440.4136L260.8254,450.6136z"/>
  </g>
  <g style="fill:#000000; fill-rule:nonzero">
   <text   style="font-family:Helvetica; font-style:normal; font-weight:normal; font-size:600.0000" transform="matrix(0.0280,-0.0000,-0.0000,0.0280,105.2179,41.4522)">Symbols</text>
  </g>
  <g style="fill:none; stroke:#000000; stroke-width:  0.9000; stroke-linecap:butt; stroke-linejoin:miter; stroke-dasharray:none">
   <path d="M483.9097,505.0275L499.5488,503.9613L515.1880,503.1467L530.8271,502.0805L546.4662,500.3553L562.1053,497.8155L577.7444,494.6168L593.3836,491.1665L609.0227,487.9678"/>
  </g>
  <g style="fill:none; stroke:#000000; stroke-width:  0.9000; stroke-linecap:butt; stroke-linejoin:miter; stroke-dasharray: 1 3">
   <path d="M483.9097,483.7028L499.5488,482.6366L515.1880,481.8220L530.8271,480.7558L546.4662,479.0306L562.1053,476.4908L577.7444,473.2921L593.3836,469.8418L609.0227,466.6431"/>
  </g>
  <g style="fill:none; stroke:#000000; stroke-width:  0.9000; stroke-linecap:butt; stroke-linejoin:miter; stroke-dasharray: 5 3">
   <path d="M483.9097,462.3781L499.5488,461.3119L515.1880,460.4973L530.8271,459.4310L546.4662,457.7059L562.1053,455.1661L577.7444,451.9674L593.3836,448.5171L609.0227,445.3183"/>
  </g>
  <g style="fill:none; stroke:#000000; stroke-width:  0.9000; stroke-linecap:butt; stroke-linejoin:miter; stroke-dasharray: 7 3">
   <path d="M483.9097,441.0534L499.5488,439.9872L515.1880,439.1726L530.8271,438.1063L546.4662,436.3812L562.1053,433.8414L577.7444,430.6427L593.3836,427.1923L609.0227,423.9936"/>
  </g>
  <g style="fill:none; stroke:#000000; stroke-width:  0.9000; stroke-linecap:butt; stroke-linejoin:miter; stroke-dasharray: 1 3 5 3">
   <path d="M483.9097,419.7287L499.5488,418.6624L515.1880,417.8478L530.8271,416.7816L546.4662,415.0564L562.1053,412.5167L577.7444,409.3179L593.3836,405.8676L609.0227,402.6689"/>
  </g>
  <g style="fill:none; stroke:#000000; stroke-width:  0.9000; stroke-linecap:butt; stroke-linejoin:miter; stroke-dasharray:none">
   <path d="M483.9097,398.4040L499.5488,397.3377L515.1880,396.5231L530.8271,395.4569L546.4662,393.7317L562.1053,391.1919L577.7444,387.9932L593.3836,384.5429L609.0227,381.3442"/>
  </g>
  <g style="fill:none; stroke:#000000; stroke-width:  1.8000; stroke-linecap:butt; stroke-linejoin:miter; stroke-dasharray:none">
   <path d="M483.9097,377.0792L499.5488,376.0130L515.1880,375.1984L530.8271,374.1322L546.4662,372.4070L562.1053,369.8672L577.7444,366.6685L593.3836,363.2182L609.0227,360.0195"/>
  </g>
  <g style="fill:none; stroke:#000000; stroke-width:  3.6000; stroke-linecap:butt; stroke-linejoin:miter; stroke-dasharray:none">
   <path d="M483.9097,355.7545L499.5488,354.6883L515.1880,353.8737L530.8271,352.8074L546.4662,351.0823L562.1053,348.5425L577.7444,345.3438L593.3836,341.8935L609.0227,338.6947"/>
  </g>
  <g style="fill:none; stroke:#000000; stroke-width:  5.4000; stroke-linecap:butt; stroke-linejoin:miter; stroke-dasharray:none">
   <path d="M483.9097,334.4298L499.5488,333.3636L515.1880,332.5490L530.8271,331.4827L546.4662,329.7576L562.1053,327.2178L577.7444,324.0191L593.3836,320.5687L609.0227,317.3700"/>
  </g>
  <g style="fill:none; stroke:#000000; stroke-width:  0.9000; stroke-linecap:butt; stroke-linejoin:miter; stroke-dasharray:none">
   <path d="M483.9097,508.8852L483.9097,502.8852"/>
   <path d="M483.9097,82.3908L483.9097,88.3908"/>
   <path d="M515.1880,508.8852L515.1880,502.8852"/>
   <path d="M515.1880,82.3908L515.1880,88.3908"/>
   <path d="M546.4662,508.8852L546.4662,502.8852"/>
   <path d="M546.4662,82.3908L546.4662,88.3908"/>
   <path d="M577.7444,508.8852L577.7444,502.8852"/>
   <path d="M577.7444,82.3908L577.7444,88.3908"/>
   <path d="M609.0227,508.8852L609.0227,502.8852"/>
   <path d="M609.0227,82.3908L609.0227,88.3908"/>
   <path d="M468.2706,508.8852L468.2706,496.8852"/>
   <path d="M468.2706,82.3908L468.2706,94.3908"/>
   <path d="M499.5488,508.8852L499.5488,496.8852"/>
   <path d="M499.5488,82.3908L499.5488,94.3908"/>
   <path d="M530.8271,508.8852L530.8271,496.8852"/>
   <path d="M530.8271,82.3908L530.8271,94.3908"/>
   <path d="M562.1053,508.8852L562.1053,496.8852"/>
   <path d="M562.1053,82.3908L562.1053,94.3908"/>
   <path d="M593.3836,508.8852L593.3836,496.8852"/>
   <path d="M593.3836,82.3908L593.3836,94.3908"/>
   <path d="M624.6618,508.8852L624.6618,496.8852"/>
   <path d="M624.6618,82.3908L624.6618,94.3908"/>
  </g>
  <g style="fill:#000000; fill-rule:nonzero">
   <text   style="font-family:Times; font-style:normal; font-weight:bold; font-size:600.0000" transform="matrix(0.0280,-0.0000,-0.0000,0.0280,457.2706,525.8852)">0.0</text>
   <text   style="font-family:Times; font-style:normal; font-weight:bold; font-size:600.0000" transform="matrix(0.0280,-0.0000,-0.0000,0.0280,489.0488,525.8852)">2.0</text>
   <text   style="font-family:Times; font-style:normal; font-weight:bold; font-size:600.0000" transform="matrix(0.0280,-0.0000,-0.0000,0.0280,520.3271,525.8852)">4.0</text>
   <text   style="font-family:Times; font-style:normal; font-weight:bold; font-size:600.0000" transform="matrix(0.0280,-0.0000,-0.0000,0.0280,551.1053,525.8852)">6.0</text>
   <text   style="font-family:Times; font-style:normal; font-weight:bold; font-size:600.0000" transform="matrix(0.0280,-0.0000,-0.0000,0.0280,582.8836,525.8852)">8.0</text>
   <text   style="font-family:Times; font-style:normal; font-weight:bold; font-size:600.0000" transform="matrix(0.0280,-0.0000,-0.0000,0.0280,609.6618,525.8852)">10.0</text>
  </g>
  <g style="fill:none; stroke:#000000; stroke-width:  0.9000; stroke-linecap:butt; stroke-linejoin:miter; stroke-dasharray:none">
   <path d="M468.2706,482.2293L474.2706,482.2293"/>
   <path d="M624.6618,482.2293L618.6618,482.2293"/>
   <path d="M468.2706,455.5734L474.2706,455.5734"/>
   <path d="M624.6618,455.5734L618.6618,455.5734"/>
   <path d="M468.2706,428.9175L474.2706,428.9175"/>
   <path d="M624.6618,428.9175L618.6618,428.9175"/>
   <path d="M468.2706,375.6057L474.2706,375.6057"/>
   <path d="M624.6618,375.6057L618.6618,375.6057"/>
   <path d="M468.2706,348.9498L474.2706,348.9498"/>
   <path d="M624.6618,348.9498L618.6618,348.9498"/>
   <path d="M468.2706,322.2939L474.2706,322.2939"/>
   <path d="M624.6618,322.2939L618.6618,322.2939"/>
   <path d="M468.2706,268.9821L474.2706,268.9821"/>
   <path d="M624.6618,268.9821L618.6618,268.9821"/>
   <path d="M468.2706,242.3262L474.2706,242.3262"/>
   <path d="M624.6618,242.3262L618.6618,242.3262"/>
   <path d="M468.2706,215.6703L474.2706,215.6703"/>
   <path d="M624.6618,215.6703L618.6618,215.6703"/>
   <path d="M468.2706,162.3585L474.2706,162.3585"/>
   <path d="M624.6618,162.3585L618.6618,162.3585"/>
   <path d="M468.2706,135.7026L474.2706,135.7026"/>
   <path d="M624.6618,135.7026L618.6618,135.7026"/>
   <path d="M468.2706,109.0467L474.2706,109.0467"/>
   <path d="M624.6618,109.0467L618.6618,109.0467"/>
   <path d="M468.2706,508.8852L480.2706,508.8852"/>
   <path d="M624.6618,508.8852L612.6618,508.8852"/>
   <path d="M468.2706,402.2616L480.2706,402.2616"/>
   <path d="M624.6618,402.2616L612.6618,402.2616"/>
   <path d="M468.2706,295.6380L480.2706,295.6380"/>
   <path d="M624.6618,295.6380L612.6618,295.6380"/>
   <path d="M468.2706,189.0144L480.2706,189.0144"/>
   <path d="M624.6618,189.0144L612.6618,189.0144"/>
   <path d="M468.2706,82.3908L480.2706,82.3908"/>
   <path d="M624.6618,82.3908L612.6618,82.3908"/>
  </g>
  <g style="fill:#000000; fill-rule:nonzero">
   <text   style="font-family:Times; font-style:normal; font-weight:bold; font-size:600.0000" transform="matrix(0.0280,-0.0000,-0.0000,0.0280,441.2706,514.3852)">0.0</text>
   <text   style="font-family:Times; font-style:normal; font-weight:bold; font-size:600.0000" transform="matrix(0.0280,-0.0000,-0.0000,0.0280,425.2706,407.7616)">100.0</text>
   <text   style="font-family:Times; font-style:normal; font-weight:bold; font-size:600.0000" transform="matrix(0.0280,-0.0000,-0.0000,0.0280,425.2706,301.1380)">200.0</text>
   <text   style="font-family:Times; font-style:normal; font-weight:bold; font-size:600.0000" transform="matrix(0.0280,-0.0000,-0.0000,0.0280,425.2706,194.5144)">300.0</text>
   <text   style="font-family:Times; font-style:normal; font-weight:bold; font-size:600.0000" transform="matrix(0.0280,-0.0000,-0.0000,0.0280,425.2706,87.8908)">400.0</text>
  </g>
  <g style="fill:none; stroke:#000000; stroke-width:  0.9000; stroke-linecap:butt; stroke-linejoin:miter; stroke-dasharray:none">
   <path d="M468.2706,508.8852L468.2706,82.3908L624.6618,82.3908L624.6618,508.8852z"/>
  </g>
  <g style="fill:#FFFFFF; fill-rule:nonzero">
   <path  d="M480.3006,104.6850L480.3006,267.6850L620.3006,267.6850L620.3006,104.6850z"/>
  </g>
  <g style="fill:#000000; fill-rule:nonzero">
   <text   style="font-family:Times; font-style:normal; font-weight:bold; font-size:600.0000" transform="matrix(0.0280,-0.0000,-0.0000,0.0280,521.3006,121.6850)">Solid</text>
  </g>
  <g style="fill:none; stroke:#000000; stroke-width:  0.9000; stroke-linecap:butt; stroke-linejoin:miter; stroke-dasharray:none">
   <path d="M486.3006,116.1850L510.3006,116.1850"/>
  </g>
  <g style="fill:#000000; fill-rule:nonzero">
   <text   style="font-family:Times; font-style:normal; font-weight:bold; font-size:600.0000" transform="matrix(0.0280,-0.0000,-0.0000,0.0280,522.3006,138.6850)">Dotted</text>
  </g>
  <g style="fill:none; stroke:#000000; stroke-width:  0.9000; stroke-linecap:butt; stroke-linejoin:miter; stroke-dasharray: 1 3">
   <path d="M486.3006,133.1850L510.3006,133.1850"/>
  </g>
  <g style="fill:#000000; fill-rule:nonzero">
   <text   style="font-family:Times; font-style:normal; font-weight:bold; font-size:600.0000" transform="matrix(0.0280,-0.0000,-0.0000,0.0280,522.3006,155.6850)">Dashed</text>
  </g>
  <g style="fill:none; stroke:#000000; stroke-width:  0.9000; stroke-linecap:butt; stroke-linejoin:miter; stroke-dasharray: 5 3">
   <path d="M486.3006,150.1850L510.3006,150.1850"/>
  </g>
  <g style="fill:#000000; fill-rule:nonzero">
   <text   style="font-family:Times; font-style:normal; font-weight:bold; font-size:600.0000" transform="matrix(0.0280,-0.0000,-0.0000,0.0280,522.3006,172.6850)">Long dashed</text>
  </g>
  <g style="fill:none; stroke:#000000; stroke-width:  0.9000; stroke-linecap:butt; stroke-linejoin:miter; stroke-dasharray: 7 3">
   <path d="M486.3006,169.1850L510.3006,169.1850"/>
  </g>
  <g style="fill:#000000; fill-rule:nonzero">
   <text   style="font-family:Times; font-style:normal; font-weight:bold; font-size:600.0000" transform="matrix(0.0280,-0.0000,-0.0000,0.0280,522.3006,193.6850)">Dot-dashed</text>
  </g>
  <g style="fill:none; stroke:#000000; stroke-width:  0.9000; stroke-linecap:butt; stroke-linejoin:miter; stroke-dasharray: 1 3 5 3">
   <path d="M486.3006,188.1850L510.3006,188.1850"/>
  </g>
  <g style="fill:#000000; fill-rule:nonzero">
   <text   style="font-family:Times; font-style:normal; font-weight:bold; font-size:600.0000" transform="matrix(0.0280,-0.0000,-0.0000,0.0280,522.3006,210.6850)">Width 1</text>
  </g>
  <g style="fill:none; stroke:#000000; stroke-width:  0.9000; stroke-linecap:butt; stroke-linejoin:miter; stroke-dasharray:none">
   <path d="M486.3006,205.1850L510.3006,205.1850"/>
  </g>
  <g style="fill:#000000; fill-rule:nonzero">
   <text   style="font-family:Times; font-style:normal; font-weight:bold; font-size:600.0000" transform="matrix(0.0280,-0.0000,-0.0000,0.0280,522.3006,227.6850)">Width 2</text>
  </g>
  <g style="fill:none; stroke:#000000; stroke-width:  1.8000; stroke-linecap:butt; stroke-linejoin:miter; stroke-dasharray:none">
   <path d="M486.3006,222.1850L510.3006,222.1850"/>
  </g>
  <g style="fill:#000000; fill-rule:nonzero">
   <text   style="font-family:Times; font-style:normal; font-weight:bold; font-size:600.0000" transform="matrix(0.0280,-0.0000,-0.0000,0.0280,522.3006,244.6850)">Width 4</text>
  </g>
  <g style="fill:none; stroke:#000000; stroke-width:  3.6000; stroke-linecap:butt; stroke-linejoin:miter; stroke-dasharray:none">
   <path d="M486.3006,239.1850L510.3006,239.1850"/>
  </g>
  <g style="fill:#000000; fill-rule:nonzero">
   <text   style="font-family:Times; font-style:normal; font-weight:bold; font-size:600.0000" transform="matrix(0.0280,-0.0000,-0.0000,0.0280,522.3006,261.6850)">Width 6</text>
  </g>
  <g style="fill:none; stroke:#000000; stroke-width:  5.4000; stroke-linecap:butt; stroke-linejoin:miter; stroke-dasharray:none">
   <path d="M486.3006,256.1850L510.3006,256.1850"/>
  </g>
  <g style="fill:#000000; fill-rule:nonzero">
   <text   style="font-family:Helvetica; font-style:normal; font-weight:normal; font-size:600.0000" transform="matrix(0.0280,-0.0000,-0.0000,0.0280,506.4662,43.3908)">Line styles</text>
   <text   style="font-family:Helvetica; font-style:normal; font-weight:normal; font-size:600.0000" transform="matrix(0.0280,-0.0000,-0.0000,0.0280,238.8494,53.4346)">Graph legend</text>
  </g>
</svg>
