<svg xmlns="http://www.w3.org/2000/svg" height="18" width="18"><defs><marker orient="auto" overflow="visible"><path d="M-2.6-2.828L-5.428 0-2.6 2.828.228 0-2.6-2.828z" fill-rule="evenodd" stroke="#000" stroke-width=".4pt"/></marker><marker orient="auto" overflow="visible"><g fill="none" stroke="#000" stroke-width=".8" stroke-linecap="round"><path d="M4.566 4.75L-.652 0"/><path d="M1.544 4.75L-3.674 0"/><path d="M-1.566 4.75L-6.784 0"/><path d="M4.566-5.013L-.652-.263"/><path d="M1.544-5.013l-5.218 4.75"/><path d="M-1.566-5.013l-5.218 4.75"/></g></marker><marker orient="auto" overflow="visible"><path d="M-5.6-5.657L-11.257 0-5.6 5.657.057 0-5.6-5.657z" fill-rule="evenodd" stroke="#000" stroke-width=".8pt"/></marker><marker orient="auto" overflow="visible"><path d="M4.616 0l-6.92 4v-8l6.92 4z" fill-rule="evenodd" stroke="#000" stroke-width=".8pt"/></marker><marker orient="auto" overflow="visible"><path d="M-10.69-4.437L1.328-.017l-12.018 4.42c1.92-2.61 1.91-6.18 0-8.84z" font-size="12" fill-rule="evenodd" stroke-width=".6875" stroke-linejoin="round"/></marker><marker orient="auto" overflow="visible"><path d="M-4.616 0l6.92-4v8l-6.92-4z" fill-rule="evenodd" stroke="#000" stroke-width=".8pt"/></marker><marker orient="auto" overflow="visible"><path d="M10 0l4-4L0 0l14 4-4-4z" fill-rule="evenodd" stroke="#000" stroke-width=".8pt"/></marker><marker orient="auto" overflow="visible"><path d="M10.69 4.437L-1.328.017l12.018-4.42c-1.92 2.61-1.91 6.18 0 8.84z" font-size="12" fill-rule="evenodd" stroke-width=".6875" stroke-linejoin="round"/></marker></defs><path d="M13.18 13.146v-5.81l-5.81 5.81h5.81z" stroke="#000" stroke-width="1.643"/><path d="M12.762 12.727l-6.51-6.51" fill="none" stroke="#000" stroke-width="2.482" stroke-linecap="round"/></svg>