#define oplink_width 11
#define oplink_height 11
static char oplink_bits[] = {
 0xff,0xff,0x01,0xfc,0xf1,0xfc,0xe1,0xfc,0xf1,0xfc,0xb9,0xfc,0x19,0xfc,0x09,
 0xfc,0x11,0xfc,0x01,0xfc,0xff,0xff};
