#define opcopy_width 11
#define opcopy_height 11
static char opcopy_bits[] = {
 0xff,0xff,0x01,0xfc,0x21,0xfc,0x21,0xfc,0x21,0xfc,0xfd,0xfd,0x21,0xfc,0x21,
 0xfc,0x21,0xfc,0x01,0xfc,0xff,0xff};
