#define opmove_width 11
#define opmove_height 11
static char opmove_bits[] = {
 0xff,0xff,0x01,0xfc,0x01,0xfc,0x51,0xfc,0x89,0xfc,0xfd,0xfd,0x89,0xfc,0x51,
 0xfc,0x01,0xfc,0x01,0xfc,0xff,0xff};
