<?xml version="1.0" encoding="UTF-8" standalone="no"?>
<!-- Created with Inkscape (http://www.inkscape.org/) -->
<svg
   xmlns:dc="http://purl.org/dc/elements/1.1/"
   xmlns:cc="http://creativecommons.org/ns#"
   xmlns:rdf="http://www.w3.org/1999/02/22-rdf-syntax-ns#"
   xmlns:svg="http://www.w3.org/2000/svg"
   xmlns="http://www.w3.org/2000/svg"
   xmlns:sodipodi="http://sodipodi.sourceforge.net/DTD/sodipodi-0.dtd"
   xmlns:inkscape="http://www.inkscape.org/namespaces/inkscape"
   width="256"
   height="256"
   id="svg2"
   sodipodi:version="0.32"
   inkscape:version="0.46"
   version="1.0"
   sodipodi:docname="lamp.svg"
   inkscape:output_extension="org.inkscape.output.svg.inkscape"
   inkscape:export-filename="C:\Users\pat\Documents\SVG\wish\lamp.png"
   inkscape:export-xdpi="45"
   inkscape:export-ydpi="45">
  <defs
     id="defs4">
    <inkscape:perspective
       sodipodi:type="inkscape:persp3d"
       inkscape:vp_x="0 : 526.18109 : 1"
       inkscape:vp_y="0 : 1000 : 0"
       inkscape:vp_z="744.09448 : 526.18109 : 1"
       inkscape:persp3d-origin="372.04724 : 350.78739 : 1"
       id="perspective10" />
    <inkscape:perspective
       id="perspective4202"
       inkscape:persp3d-origin="372.04724 : 350.78739 : 1"
       inkscape:vp_z="744.09448 : 526.18109 : 1"
       inkscape:vp_y="0 : 1000 : 0"
       inkscape:vp_x="0 : 526.18109 : 1"
       sodipodi:type="inkscape:persp3d" />
  </defs>
  <sodipodi:namedview
     id="base"
     pagecolor="#ffffff"
     bordercolor="#666666"
     borderopacity="1.0"
     gridtolerance="10000"
     guidetolerance="10"
     objecttolerance="10"
     inkscape:pageopacity="0.0"
     inkscape:pageshadow="2"
     inkscape:zoom="1.9765625"
     inkscape:cx="122.94071"
     inkscape:cy="132.27976"
     inkscape:document-units="px"
     inkscape:current-layer="layer1"
     showgrid="false"
     inkscape:window-width="1253"
     inkscape:window-height="696"
     inkscape:window-x="155"
     inkscape:window-y="130" />
  <metadata
     id="metadata7">
    <rdf:RDF>
      <cc:Work
         rdf:about="">
        <dc:format>image/svg+xml</dc:format>
        <dc:type
           rdf:resource="http://purl.org/dc/dcmitype/StillImage" />
        <dc:title>Wish</dc:title>
        <cc:license
           rdf:resource="http://creativecommons.org/licenses/by-nc-sa/3.0/" />
      </cc:Work>
      <cc:License
         rdf:about="http://creativecommons.org/licenses/by-nc-sa/3.0/">
        <cc:permits
           rdf:resource="http://creativecommons.org/ns#Reproduction" />
        <cc:permits
           rdf:resource="http://creativecommons.org/ns#Distribution" />
        <cc:requires
           rdf:resource="http://creativecommons.org/ns#Notice" />
        <cc:requires
           rdf:resource="http://creativecommons.org/ns#Attribution" />
        <cc:prohibits
           rdf:resource="http://creativecommons.org/ns#CommercialUse" />
        <cc:permits
           rdf:resource="http://creativecommons.org/ns#DerivativeWorks" />
        <cc:requires
           rdf:resource="http://creativecommons.org/ns#ShareAlike" />
      </cc:License>
    </rdf:RDF>
  </metadata>
  <g
     inkscape:label="Layer 1"
     inkscape:groupmode="layer"
     id="layer1">
    <path
       id="path4244"
       d="M 415.15644,157.10949 C 415.95395,156.55285 413.63871,156.20026 408.98022,156.16891 C 400.39605,156.11114 394.03714,153.62619 389.90404,148.71428 C 386.80837,145.03529 386.70005,142.56479 389.55139,140.67157 C 392.33793,138.82138 391.59696,137.74624 384.94986,133.99485 C 377.10186,129.56571 367.45876,120.11083 361.01771,110.52982 C 356.2238,103.39891 354.835,102.02199 351.39782,100.99218 C 348.07028,99.995225 347.3807,99.349945 347.3807,97.233135 C 347.3807,95.827615 348.28389,93.409235 349.38778,91.858965 C 350.70625,90.007345 351.00116,88.909055 350.24734,88.657785 C 348.52268,88.082895 349.12369,71.212775 351.01049,67.236642 C 352.72697,63.619426 358.4038,59.341601 362.8807,58.291741 C 368.19851,57.044683 371.3807,54.944074 371.3807,52.68077 C 371.3807,51.505545 370.0325,48.443002 368.38469,45.875118 C 364.6377,40.035936 363.56213,33.352517 365.70314,29.212273 C 368.86873,23.090696 378.69381,16.159436 389.80945,12.206085 C 396.16957,9.9440683 409.19029,7.9006403 416.8807,7.9576143 C 429.56583,8.0515923 430.45121,10.684797 418.52387,12.844573 C 408.41402,14.675243 395.40533,18.738492 389.39058,21.944323 C 382.19817,25.777834 375.3807,32.024842 375.3807,34.781896 C 375.3807,35.961118 376.7307,39.600271 378.3807,42.868903 C 381.7881,49.618923 382.10517,53.281819 379.7158,58.292375 C 377.80005,62.30975 372.62836,64.868903 366.42556,64.868903 C 361.00253,64.868903 357.56106,66.378947 356.20597,69.353051 C 354.65926,72.747705 355.39815,73.177385 359.69504,71.382035 C 364.84442,69.230481 369.94545,69.499889 378.3807,72.368905 C 386.08854,74.990505 393.19753,75.572485 396.42352,73.845985 C 399.16382,72.379425 400.20168,69.980487 401.8714,61.253678 C 402.8156,56.318785 404.11402,52.717225 405.46884,51.27508 C 409.57057,46.908996 417.3263,46.188254 435.8807,48.4489 C 440.51899,49.014024 441.21999,48.798052 445.57071,45.463499 C 448.15021,43.486471 450.93616,41.868903 451.76169,41.868903 C 456.39638,41.868903 453.00898,47.459001 446.28417,50.908252 C 444.30607,51.922844 437.33107,53.551117 430.78417,54.526637 C 415.93531,56.739186 415.13628,57.382184 413.51607,68.422706 C 412.86967,72.827445 411.54206,77.483105 410.53723,78.868905 C 407.37979,83.223475 398.88397,87.099935 391.31007,87.641845 C 382.34323,88.283415 380.33433,87.656565 374.36395,82.354025 C 370.03354,78.508005 368.69669,77.868905 364.98218,77.868905 C 360.03038,77.868905 356.23453,80.317105 353.75648,85.109115 C 352.31064,87.905065 352.31073,88.250245 353.75754,89.059915 C 354.62947,89.547875 358.14729,92.392935 361.57494,95.382295 C 373.67667,105.93659 385.05189,109.87945 387.55431,104.38722 C 389.01862,101.17342 400.23138,93.868905 403.70042,93.868905 C 405.61476,93.868905 406.3807,93.354525 406.3807,92.068905 C 406.3807,89.300765 408.42915,87.865755 412.3307,87.900705 C 416.2925,87.936195 418.45173,89.238425 420.29952,92.706685 C 421.27351,94.534825 422.08643,94.908595 424.02848,94.421175 C 425.97033,93.933795 427.14185,94.472205 429.40044,96.890035 C 430.98913,98.590725 433.7721,100.41478 435.58483,100.94347 C 438.47789,101.78726 439.06063,101.62756 440.35288,99.636815 C 445.10643,92.313915 453.6284,87.868905 462.91432,87.868905 C 471.25226,87.868905 477.3762,94.861065 477.37915,104.38451 C 477.38132,111.40533 474.73351,115.99375 469.63732,117.8004 C 465.8216,119.15312 465.3143,119.09082 460.41928,116.6683 L 455.23918,114.10469 L 455.55994,118.7368 C 455.85694,123.02582 455.69553,123.39336 453.3807,123.69898 C 452.0057,123.88052 449.0807,125.72311 446.8807,127.79362 C 444.6807,129.86413 441.3057,132.60737 439.3807,133.88971 C 437.4557,135.17205 435.71687,136.34329 435.51663,136.49247 C 435.3164,136.64165 436.1039,138.303 437.26663,140.18434 C 440.00489,144.61494 439.95186,145.14881 436.36797,149.23063 C 433.17349,152.86894 427.63954,155.56972 421.9273,156.27821 C 420.02228,156.51449 417.43247,156.99854 416.17217,157.35387 C 414.69967,157.76902 414.33665,157.68168 415.15644,157.10949 z M 461.66289,105.49411 C 466.02111,106.09147 466.3807,105.96302 467.55302,103.39006 C 468.64455,100.9944 468.56244,100.47497 466.9,99.259355 C 463.50165,96.774425 454.03816,98.379955 450.76501,101.99675 C 449.2334,103.68915 449.23826,104.00257 450.83387,106.43778 L 452.55063,109.05789 L 454.78597,106.9579 C 456.6536,105.20335 457.78484,104.96256 461.66289,105.49411 z M 480.08955,157.24443 C 479.03653,156.19141 479.23148,154.86891 480.43972,154.86891 C 481.02218,154.86891 481.22062,155.31891 480.8807,155.86891 C 480.53516,156.42801 481.28072,156.85424 482.57168,156.83564 L 484.8807,156.80237 L 482.82974,155.08564 C 481.26204,153.77341 480.78031,152.19079 480.78523,148.36891 C 480.78878,145.61891 480.4093,142.24744 479.94194,140.87675 C 479.17159,138.6174 479.24977,138.51536 480.77884,139.78437 C 482.10899,140.8883 482.72069,140.92526 483.67308,139.95921 C 484.61817,139.00056 484.50928,138.45979 483.17218,137.47168 C 480.67758,135.62817 479.8077,125.30277 482.07374,124.43321 C 484.50372,123.50074 486.09262,125.4993 484.69743,127.73335 C 484.07418,128.73133 483.86705,130.0378 484.23714,130.63662 C 484.60722,131.23543 484.90343,137.49517 484.89536,144.54714 C 484.88148,156.68738 484.7722,157.38444 482.83955,157.66109 C 481.71692,157.82179 480.47942,157.63429 480.08955,157.24443 z M 482.25305,118.70224 C 481.74301,109.37956 481.9401,107.3904 483.40197,107.10616 C 484.64333,106.86478 484.91924,108.04245 484.9015,113.50646 C 484.88705,117.95665 484.46065,120.34226 483.63023,120.61907 C 482.88848,120.86632 482.32882,120.08736 482.25305,118.70224 z M 379.00441,69.349758 C 376.06529,66.410633 377.10113,63.67485 383.3807,57.791426 C 389.1743,52.363315 389.3807,51.996847 389.3807,47.13811 C 389.3807,42.527633 389.68488,41.874271 393.01325,39.335601 C 396.00346,37.054853 398.10542,36.431883 404.90027,35.812562 C 416.73834,34.733574 419.96577,32.472032 421.51698,24.168809 C 422.76442,17.491595 424.77273,15.934307 435.02949,13.690888 C 444.53714,11.61132 473.5654,10.035808 469.8807,11.799335 C 462.39978,15.379766 448.69837,19.973669 443.16225,20.757679 C 434.68965,21.957548 433.72397,22.530265 426.73194,30.502062 C 423.51376,34.171199 419.46171,37.767608 417.72739,38.494081 C 415.99308,39.220554 410.20812,40.121839 404.87193,40.496935 C 392.82345,41.34386 390.96003,42.710991 391.65408,50.194442 C 392.08855,54.878864 391.98999,55.090456 388.28416,57.429845 C 384.39732,59.883502 381.94201,63.096875 383.08255,64.23742 C 383.42987,64.584736 386.14059,64.868903 389.10639,64.868903 C 395.04346,64.868903 395.33233,66.026622 389.95576,68.273094 C 383.92501,70.792905 380.75884,71.104181 379.00441,69.349758 z M 434.60321,38.312199 C 427.83023,33.568222 439.44607,28.281864 448.8156,31.844152 C 452.78899,33.354831 451.84999,34.868903 446.93972,34.868903 C 442.58714,34.868903 440.3344,36.104222 442.3807,37.368903 C 442.94864,37.719911 443.15443,38.426005 442.838,38.938001 C 441.93507,40.398969 437.05277,40.027939 434.60321,38.312199 z M 399.1307,26.788804 C 398.1682,26.228199 397.3807,24.907716 397.3807,23.854397 C 397.3807,19.888982 404.86882,18.583104 410.97957,21.482844 C 414.6962,23.2465 415.79992,26.473299 412.3807,25.579154 C 411.08084,25.239232 410.3807,25.548472 410.3807,26.462523 C 410.3807,28.151255 401.89255,28.397435 399.1307,26.788804 z"
       style="fill:#a19ea5" />
    <path
       id="path4242"
       d="M 105.76326,194.33186 C 96.199481,191.3282 86.035511,183.95952 84.415432,178.8551 C 83.669624,176.50526 84.619431,173.43151 87.043677,170.34958 C 89.131529,167.6953 90.839771,164.85771 90.839771,164.04381 C 90.839771,163.22992 85.918717,159.94111 79.904096,156.73534 C 65.654177,149.14022 48.534772,133.52161 39.035518,119.44956 C 25.94837,100.06246 20.676575,94.528555 15.260318,94.492261 C 12.544659,94.474078 9.7834525,93.586577 9.1243032,92.52005 C 7.1111542,89.262706 9.8582449,82.714405 14.697759,79.234457 L 19.284506,75.93627 L 32.226689,86.830368 C 45.242318,97.786283 61.932601,107.70092 70.896763,109.80181 C 74.874966,110.73415 76.973245,109.63504 82.823316,103.55448 C 91.577415,94.455454 106.5437,84.581571 109.7288,85.803804 C 112.30619,86.792846 119.14001,82.528975 119.50937,79.701372 C 119.63551,78.735652 119.84193,77.072338 119.96808,76.00515 C 120.1008,74.882421 123.45816,74.302552 127.93568,74.629009 C 134.42967,75.102512 136.37445,76.225828 140.03071,81.615217 C 142.42694,85.147312 144.93094,87.89196 145.59516,87.714438 C 146.25938,87.536916 148.11372,86.880753 149.71593,86.256298 C 151.55372,85.540025 154.60158,87.11622 157.97278,90.526315 C 160.91183,93.499275 166.37382,96.761572 170.11052,97.77588 C 176.63713,99.547487 177.10469,99.356038 181.99078,92.911204 C 189.2319,83.360053 193.30348,80.314122 203.42538,76.876064 C 213.99829,73.284813 227.86298,74.099195 234.92479,78.726276 C 249.97261,88.585994 246.13011,121.71137 229.57839,124.81649 C 217.25776,127.12786 203.68336,119.34028 204.912,110.66549 C 205.47565,106.68593 206.35069,106.38575 217.3878,106.38575 C 228.7903,106.38575 229.33057,106.17926 231.11535,101.13898 C 232.77591,96.449555 232.39214,95.427248 227.50256,91.5151 C 221.01109,86.321288 212.43622,85.84151 203.33017,90.162611 C 193.1595,94.988901 192.26182,99.390772 198.85898,112.08736 C 201.94886,118.03401 204.71121,125.78933 204.99756,129.32143 C 205.44391,134.8274 204.9522,135.7516 201.55033,135.80083 C 199.36802,135.83241 193.58823,139.5894 188.70635,144.14971 C 183.82446,148.71 177.14673,154.02271 173.86693,155.95573 C 170.58712,157.88875 167.90365,160.16082 167.90365,161.00476 C 167.90365,161.8487 169.76144,165.83259 172.03207,169.85786 L 176.16049,177.17652 L 169.56843,183.28424 C 155.87761,195.96917 126.9335,200.98073 105.76326,194.33186 z"
       style="fill:#edd400"
       sodipodi:nodetypes="cssssssscccsssssssssssssssssssssssssscccc" />
    <path
       id="path4238"
       d="M 105.76326,195.26015 C 91.2682,190.70773 79.926103,178.96138 85.064191,173.82331 C 86.412111,172.47539 90.329525,173.11166 98.078673,175.93715 C 114.43988,181.90274 127.59098,183.59079 140.28535,181.35472 C 153.94689,178.94829 158.14857,176.20124 155.47497,171.42379 C 153.72375,168.29452 151.50157,168.02067 131.82394,168.50911 C 119.87893,168.8056 106.35554,168.19755 101.77196,167.15787 C 89.698721,164.41931 70.093174,152.93068 56.939947,140.88681 C 44.534571,129.52772 29.195171,107.81695 31.238758,104.51038 C 31.937342,103.38006 30.70876,100.53908 28.508587,98.197089 C 25.268931,94.748645 23.184206,94.116538 17.545112,94.872902 C 13.258048,95.447908 10.071549,94.981011 9.2539007,93.658026 C 7.1231945,90.210482 9.7375867,83.729446 14.697767,80.162746 L 19.284499,76.864559 L 32.226699,87.758658 C 47.530117,100.64033 63.263112,109.42753 74.136789,111.1663 C 82.555064,112.51244 85.287914,115.79329 81.646114,120.18138 C 77.940809,124.646 66.533098,123.44089 54.981809,117.36455 C 49.183358,114.31439 44.065729,112.19224 43.609327,112.64866 C 42.195407,114.06256 58.535133,129.40174 68.983105,136.4687 C 82.893943,145.87792 99.314337,150.64583 118.36258,150.80678 C 145.52872,151.03631 162.76551,145.71413 177.25684,132.62207 C 188.34716,122.60263 188.94814,120.5505 182.73878,113.90333 C 175.81472,106.49109 168.70623,106.44964 158.32432,113.76097 C 147.98605,121.04152 132.76454,123.60855 116.61147,120.79561 C 102.20671,118.28713 93.486961,114.8298 92.037334,111.05211 C 91.442016,109.50075 89.277658,108.23147 87.227649,108.23147 C 85.17764,108.23147 83.500363,107.13687 83.500363,105.79902 C 83.500363,100.44846 105.44657,85.088853 110.38429,86.983634 C 112.97609,87.978198 112.0154,89.694925 104.72512,97.096507 L 95.944216,106.01146 L 108.89174,108.95633 C 125.60393,112.75743 132.19327,112.622 141.75698,108.28088 C 150.27283,104.41539 151.12833,102.11981 146.51015,95.52644 C 143.6484,91.440733 143.6695,91.029744 146.86084,88.696177 C 151.48792,85.312779 152.0368,85.452081 158.05294,91.536605 C 160.9479,94.464463 166.37382,97.689862 170.11052,98.704169 C 176.63713,100.47578 177.10469,100.28433 181.99078,93.839493 C 189.2319,84.288343 193.30348,81.242411 203.42538,77.804353 C 214.46761,74.053691 228.66626,75.111117 235.46998,80.190801 C 246.39872,88.350288 247.47071,106.01058 237.63431,115.84696 C 231.52704,121.95423 223.54183,122.71682 215.49179,117.96155 C 204.60894,111.53288 206.6535,105.81232 219.23735,107.48162 C 226.96374,108.50657 228.35458,108.17571 230.11029,104.8951 C 232.76067,99.942824 232.67127,92.999442 229.92172,90.249895 C 226.72145,87.049615 210.78434,87.553668 203.33017,91.0909 C 193.1595,95.917191 192.26182,100.31906 198.85898,113.01565 C 201.94886,118.9623 204.71121,126.71762 204.99756,130.24972 C 205.44391,135.75569 204.9522,136.67989 201.55033,136.72912 C 199.36802,136.7607 193.58823,140.51769 188.70635,145.078 C 183.82446,149.63829 177.14673,154.951 173.86693,156.88402 C 170.58712,158.81704 167.90365,161.08911 167.90365,161.93305 C 167.90365,162.77699 169.76144,166.76088 172.03207,170.78615 L 176.16049,178.10481 L 169.56843,184.21253 C 155.87761,196.89746 126.9335,201.90902 105.76326,195.26015 z M 124.39689,92.286528 C 123.73252,90.555233 124.16318,88.866818 125.37189,88.463902 C 128.82997,87.311229 127.89606,85.131073 122.98588,82.893835 C 115.70755,79.577611 118.94662,74.88732 128.04458,75.568657 C 133.65369,75.988728 136.35232,77.369401 139.27998,81.316906 L 143.13312,86.512278 L 137.98496,90.949892 C 131.98533,96.12141 126.09095,96.701224 124.39689,92.286528 z"
       style="fill:#555753"
       sodipodi:nodetypes="cssssssssssscccsssssssssssssscccsssssssssssssssssssscccccssscccc" />
    <path
       id="path4234"
       d="M 110.50482,194.3016 C 101.29684,192.13337 94.533525,188.48684 89.271383,182.85325 C 82.390918,175.4871 85.936884,174.28107 99.528813,179.36455 C 115.59245,185.37247 143.30992,186.28633 152.7661,181.11982 C 159.03409,177.69523 160.98588,170.45868 156.43581,167.51383 C 155.17435,166.69739 142.9955,165.96174 129.37171,165.87907 C 108.80987,165.75428 102.74285,165.05333 93.663859,161.75352 C 73.025491,154.25244 49.561448,135.01491 39.768427,117.56612 C 35.780389,110.46041 36.411322,110.85564 48.942698,123.31318 C 70.302623,144.54723 92.258893,154.15548 119.15432,154.03838 C 135.83546,153.96576 152.56346,150.85172 163.02604,145.87134 C 172.41161,141.40363 189.9219,125.23231 189.9219,121.03213 C 189.9219,119.19248 187.7843,115.1469 185.17167,112.04198 C 178.58784,104.21754 168.03965,104.18244 155.55484,111.94343 C 150.18536,115.28129 142.95424,117.92581 137.39714,118.58397 C 127.97216,119.70021 104.80591,116.69758 100.01936,113.73933 C 94.450094,110.29735 100.24351,109.86707 113.23644,112.75774 C 127.9361,116.02809 138.20198,114.95313 146.93857,109.22869 C 153.28212,105.07225 154.19121,101.72283 150.50345,96.094621 C 148.24619,92.649609 147.93449,90.769617 149.38072,89.323385 C 150.82695,87.877153 153.0819,88.968084 157.50247,93.252689 C 160.86829,96.51495 166.83523,100.07126 170.76237,101.15561 C 177.28458,102.95648 178.14485,102.76481 180.70126,98.941361 C 190.46478,84.338673 203.44977,77.038962 219.66199,77.038962 C 239.73552,77.038962 249.19265,98.555619 235.51724,113.11244 C 230.28699,118.67977 219.45458,118.99815 214.68225,113.7248 C 210.40882,109.00271 211.87531,107.60004 218.46592,110.10579 C 222.73772,111.72993 224.48175,111.47356 228.23768,108.66934 C 235.27205,103.41743 237.01116,96.063887 232.61714,90.15151 C 228.70991,84.894138 221.3182,83.243302 210.64805,85.245036 C 203.22425,86.637745 191.75676,96.268143 191.75676,101.10994 C 191.75676,103.03903 194.23381,109.00645 197.26132,114.37093 C 203.6019,125.60581 204.5447,133.91945 199.47821,133.91945 C 197.66998,133.91945 192.50945,137.70093 188.01037,142.32275 C 183.51127,146.94454 176.32104,152.80279 172.03207,155.34108 C 163.73389,160.25204 162.48268,163.20921 167.08641,167.02996 C 171.28,170.51035 173.54029,175.47679 172.34649,178.58776 C 170.71762,182.83253 158.4385,190.19925 147.65345,193.40206 C 137.09511,196.53755 121.59442,196.91291 110.50482,194.3016 z M 56.408298,114.61872 C 49.129046,110.97705 38.716927,103.92466 33.270272,98.946719 L 23.367251,89.895915 L 16.969775,92.568949 C 9.3420288,95.756035 8.6495364,95.306148 9.7405408,87.872639 C 10.344685,83.75629 11.031471,82.8609 12.211447,84.651204 C 13.540212,86.667268 14.305567,86.530535 16.306604,83.919666 C 17.660139,82.153618 19.320682,80.708671 19.996697,80.708671 C 20.672694,80.708671 26.554779,85.229385 33.067979,90.7547 C 45.470438,101.27603 59.192323,109.15379 71.573791,112.86101 C 75.610471,114.06964 78.913208,116.20591 78.913208,117.60829 C 78.913208,122.46961 69.63857,121.23756 56.408298,114.61872 z M 87.170053,103.7711 C 87.170053,101.119 98.339717,92.839094 105.19954,90.406132 C 109.67365,88.819295 99.599675,99.261745 92.756946,103.30384 C 87.921829,106.16003 87.170053,106.22289 87.170053,103.7711 z M 129.35231,88.988873 C 132.38564,85.333953 130.37875,80.708671 125.7596,80.708671 C 123.70957,80.708671 122.03229,79.882986 122.03229,78.873816 C 122.03229,76.472212 130.46732,76.514212 134.9969,78.938366 C 141.6449,82.496277 137.51074,91.717796 129.26767,91.717796 C 127.62199,91.717796 127.64274,91.04879 129.35231,88.988873 z"
       style="fill:#000000;fill-opacity:1"
       sodipodi:nodetypes="cssssssssssssssssssssssssssssssssssssscccccsssssssccssccssssc" />
  </g>
</svg>
